<svg width="32" height="30" viewBox="0 0 32 30" fill="none" xmlns="http://www.w3.org/2000/svg">
<g clip-path="url(#clip0_407_452)">
<path d="M24.0068 18.6982C27.0256 18.2319 30.2842 19.9832 30.4215 20.0582C30.5358 20.1204 30.6315 20.213 30.6983 20.3261C30.7652 20.4391 30.8006 20.5684 30.8009 20.7C30.8012 20.8316 30.7663 20.9606 30.7 21.0732C30.6336 21.1859 30.5383 21.2779 30.4243 21.3393C28.8645 22.207 27.3545 23.1638 25.9017 24.2052C25.2114 24.7036 24.4146 25.0292 23.5759 25.1557C22.324 25.3185 21.0503 25.1492 19.8782 24.6643C19.8782 24.6643 18.781 24.3418 18.7791 23.6161C18.778 23.2532 19.4939 22.1769 19.4939 22.1769C19.4939 22.1769 20.5396 20.475 21.3257 19.8691C22.1119 19.2631 23.0319 18.8614 24.0068 18.6982Z" fill="#9DC209"/>
<path d="M9.09287 21.0657C10.089 21.2091 11.8507 22.1827 11.8507 22.1827L12.7206 24.5444C11.9118 25.5434 10.8586 26.3166 9.66314 26.7888C8.85361 27.0902 7.98455 27.1969 7.12618 27.1003C5.32331 26.9033 3.5107 26.8086 1.69709 26.817C1.56549 26.8192 1.43576 26.7856 1.32177 26.7198C1.20778 26.654 1.11383 26.5584 1.04996 26.4434C0.986082 26.3283 0.954699 26.198 0.959157 26.0665C0.963622 25.9349 1.00376 25.807 1.07527 25.6965C1.16117 25.5638 3.21296 22.4336 6.13188 21.359C7.08056 21.0228 8.0967 20.9222 9.09287 21.0657Z" fill="#9DC209"/>
<path d="M25.4394 17.6187C26.1318 17.6309 26.8106 17.4256 27.3802 17.0319C27.2551 16.3508 26.9204 15.7264 26.4226 15.2451C25.9247 14.7638 25.2889 14.4502 24.6039 14.3483L23.8364 14.2346C23.8276 14.2715 23.8179 14.3097 23.8079 14.3486C23.7181 14.7093 23.6006 15.0627 23.4566 15.4054C23.3733 15.6067 23.2836 15.7999 23.1886 15.9842C23.1514 16.0564 23.1098 16.1205 23.071 16.19C23.0125 16.2943 22.9559 16.4023 22.8939 16.4998L23.5204 16.9642C24.0759 17.3777 24.747 17.6066 25.4394 17.6187Z" fill="#F3BE00"/>
<path d="M6.49838 7.05861C5.806 7.04648 5.12725 7.25173 4.55762 7.64549C4.68269 8.32657 5.01741 8.95094 5.51526 9.4322C6.0131 9.91354 6.64897 10.2271 7.33388 10.3291L8.10145 10.4427C8.11023 10.4058 8.11991 10.3676 8.12988 10.3288C8.2197 9.96802 8.33714 9.61468 8.48114 9.2719C8.56456 9.07068 8.65423 8.87749 8.74919 8.69315C8.7864 8.62097 8.828 8.55682 8.86685 8.48738C8.92527 8.38305 8.9819 8.27507 9.04389 8.17743L8.41736 7.71306C7.8619 7.29963 7.19075 7.07074 6.49838 7.05861Z" fill="#F3BE00"/>
<path d="M10.6889 21.8092C10.6767 22.5016 10.882 23.1803 11.2757 23.75C11.9568 23.6249 12.5812 23.2902 13.0625 22.7923C13.5438 22.2945 13.8574 21.6586 13.9594 20.9737L14.073 20.2062C14.0361 20.1974 13.9979 20.1877 13.959 20.1778C13.5983 20.0879 13.245 19.9704 12.9022 19.8264C12.701 19.7431 12.5078 19.6534 12.3234 19.5584C12.2513 19.5212 12.1871 19.4796 12.1176 19.4408C12.0133 19.3823 11.9053 19.3257 11.8077 19.2637L11.3434 19.8902C10.9299 20.4457 10.701 21.1168 10.6889 21.8092Z" fill="#F3BE00"/>
<path d="M21.2491 2.86825C21.2612 2.17588 21.056 1.49713 20.6622 0.92749C19.9812 1.05257 19.3568 1.38729 18.8755 1.88513C18.3942 2.38298 18.0806 3.01885 17.9786 3.70375L17.865 4.47131C17.9019 4.48008 17.9401 4.48977 17.9789 4.49974C18.3397 4.5896 18.693 4.70705 19.0358 4.85105C19.237 4.9344 19.4302 5.02409 19.6146 5.11909C19.6868 5.15628 19.7509 5.19788 19.8203 5.23669C19.9247 5.29516 20.0327 5.35174 20.1302 5.41378L20.5947 4.78727C21.0081 4.23177 21.237 3.56062 21.2491 2.86825Z" fill="#F3BE00"/>
<path d="M5.53877 15.3018C5.04062 15.7828 4.7058 16.4078 4.58142 17.089C5.15145 17.4822 5.82964 17.687 6.522 17.6753C7.21435 17.6636 7.88572 17.4357 8.44215 17.0235L9.06525 16.5612C9.04531 16.5289 9.02522 16.495 9.00475 16.4605C8.8132 16.1418 8.64643 15.8089 8.50585 15.4648C8.4225 15.2635 8.34935 15.0635 8.28609 14.8659C8.26138 14.7887 8.24546 14.7138 8.2238 14.6373C8.19136 14.5222 8.15504 14.4058 8.12989 14.293L7.35851 14.4076C6.67335 14.508 6.03693 14.8207 5.53877 15.3018Z" fill="#F3BE00"/>
<path d="M26.3992 9.37548C26.8974 8.89451 27.2322 8.26939 27.3566 7.58816C26.7866 7.19506 26.1084 6.99024 25.416 7.00194C24.7237 7.01363 24.0523 7.24151 23.4958 7.65373L22.8728 8.11609C22.8927 8.14839 22.9128 8.18225 22.9332 8.21678C23.1248 8.53544 23.2916 8.86831 23.4321 9.2125C23.5155 9.41373 23.5887 9.61376 23.6519 9.81127C23.6766 9.88859 23.6926 9.96338 23.7142 10.04C23.7466 10.1551 23.7829 10.2714 23.8081 10.3843L24.5795 10.2697C25.2646 10.1692 25.901 9.85652 26.3992 9.37548Z" fill="#F3BE00"/>
<path d="M13.0059 1.90853C12.525 1.41037 11.8999 1.07556 11.2187 0.951172C10.8256 1.5212 10.6207 2.19939 10.6324 2.89175C10.6441 3.58411 10.872 4.25548 11.2842 4.81191L11.7466 5.43499C11.7789 5.41509 11.8127 5.39494 11.8472 5.3745C12.1659 5.18296 12.4988 5.01617 12.843 4.87562C13.0442 4.79227 13.2442 4.71908 13.4417 4.65588C13.5191 4.63116 13.5939 4.61519 13.6704 4.59355C13.7856 4.56111 13.9019 4.52478 14.0148 4.49964L13.9002 3.72826C13.7997 3.04311 13.487 2.40668 13.0059 1.90853Z" fill="#F3BE00"/>
<path d="M18.9322 22.7689C19.4131 23.2671 20.0382 23.6019 20.7194 23.7263C21.1125 23.1563 21.3174 22.4781 21.3057 21.7857C21.294 21.0934 21.0661 20.422 20.6539 19.8655L20.1915 19.2424C20.1592 19.2624 20.1254 19.2825 20.0909 19.3029C19.7722 19.4945 19.4393 19.6613 19.0951 19.8018C18.8939 19.8852 18.6939 19.9583 18.4963 20.0216C18.419 20.0463 18.3443 20.0622 18.2677 20.0839C18.1525 20.1163 18.0362 20.1526 17.9233 20.1778L18.0379 20.9492C18.1384 21.6343 18.4511 22.2707 18.9322 22.7689Z" fill="#F3BE00"/>
<path d="M26.7393 13.5926C27.3836 13.3388 27.9321 12.8895 28.3077 12.3077C27.9315 11.7264 27.3834 11.2776 26.7393 11.0234C26.0951 10.7693 25.3876 10.7229 24.7158 10.8908L23.9632 11.0795C23.9692 11.117 23.9749 11.156 23.9806 11.1957C24.0356 11.5634 24.0623 11.9348 24.0604 12.3065C24.0604 12.5244 24.0515 12.7371 24.0343 12.9439C24.0275 13.0248 24.0137 13.0999 24.0044 13.179C23.9903 13.2977 23.9793 13.4191 23.9594 13.533L24.7159 13.7223C25.3873 13.8917 26.0949 13.8463 26.7393 13.5926Z" fill="#F3BE00"/>
<path d="M5.1987 11.0846C4.55439 11.3383 4.00585 11.7877 3.63025 12.3694C4.00644 12.9508 4.55462 13.3996 5.19875 13.6537C5.84289 13.9079 6.55037 13.9543 7.22217 13.7864L7.97475 13.5977C7.96873 13.5601 7.96307 13.5212 7.95742 13.4815C7.90242 13.1138 7.8757 12.7424 7.87756 12.3706C7.87756 12.1528 7.88649 11.94 7.90369 11.7333C7.91046 11.6524 7.9243 11.5772 7.9336 11.4982C7.94767 11.3795 7.95868 11.2581 7.97862 11.1441L7.2221 10.9548C6.55066 10.7854 5.84301 10.8308 5.1987 11.0846Z" fill="#F3BE00"/>
<path d="M14.7151 23.109C14.9688 23.7533 15.4182 24.3019 15.9999 24.6775C16.5813 24.3013 17.03 23.7531 17.2843 23.1089C17.5384 22.4648 17.5848 21.7573 17.4169 21.0856L17.2281 20.333C17.1906 20.339 17.1516 20.3447 17.112 20.3503C16.7443 20.4053 16.3729 20.432 16.0011 20.4302C15.7833 20.4302 15.5705 20.4212 15.3638 20.404C15.2829 20.3973 15.2077 20.3834 15.1287 20.3741C15.01 20.36 14.8886 20.349 14.7746 20.3291L14.5853 21.0856C14.4159 21.757 14.4613 22.4647 14.7151 23.109Z" fill="#F3BE00"/>
<path d="M17.223 1.56845C16.9692 0.924138 16.5199 0.375601 15.9381 0C15.3567 0.376188 14.908 0.924368 14.6538 1.56851C14.3997 2.21264 14.3533 2.92012 14.5212 3.59192L14.71 4.34453C14.7474 4.3385 14.7864 4.33284 14.8261 4.32717C15.1938 4.27214 15.5652 4.24544 15.937 4.24731C16.1547 4.24731 16.3676 4.25624 16.5742 4.27345C16.6551 4.2802 16.7303 4.29407 16.8093 4.30336C16.9282 4.31745 17.0495 4.32841 17.1635 4.34838L17.3527 3.59184C17.5221 2.92041 17.4768 2.21276 17.223 1.56845Z" fill="#F3BE00"/>
<path d="M7.46676 19.0679C7.19057 19.7029 7.12044 20.4085 7.26622 21.0855C7.94334 21.2305 8.64823 21.1603 9.28346 20.8845C9.91863 20.6087 10.4517 20.1413 10.808 19.5476L11.2067 18.8819C11.1759 18.8596 11.1444 18.8361 11.1123 18.812C10.8134 18.5909 10.5319 18.3472 10.2703 18.083C10.1164 17.929 9.97221 17.7722 9.83818 17.6139C9.78579 17.5519 9.7424 17.4889 9.69306 17.4265C9.61909 17.3326 9.54095 17.2389 9.47457 17.1443L8.80577 17.5454C8.21117 17.9004 7.74293 18.4328 7.46676 19.0679Z" fill="#F3BE00"/>
<path d="M24.4714 5.6096C24.7476 4.97457 24.8177 4.26894 24.6719 3.59198C23.9949 3.44691 23.2899 3.51722 22.6547 3.79297C22.0196 4.06873 21.4865 4.5362 21.1301 5.12993L20.7314 5.79559C20.7622 5.81782 20.7937 5.84138 20.8258 5.86546C21.1247 6.08654 21.4062 6.33025 21.6678 6.59446C21.8218 6.74848 21.966 6.90527 22.0999 7.0636C22.1524 7.12556 22.1958 7.18855 22.245 7.25098C22.3191 7.34493 22.3972 7.43852 22.4636 7.5332L23.1324 7.13209C23.7269 6.77709 24.1953 6.24462 24.4714 5.6096Z" fill="#F3BE00"/>
<path d="M9.23995 3.83624C8.60493 3.56008 7.8993 3.48995 7.22236 3.63573C7.07728 4.31282 7.14759 5.01776 7.42335 5.65294C7.69911 6.28812 8.16653 6.82119 8.76032 7.17752L9.426 7.57625C9.44817 7.54544 9.47176 7.51388 9.4958 7.48181C9.7169 7.1829 9.96062 6.90142 10.2248 6.63985C10.3789 6.48584 10.5357 6.34168 10.6939 6.20769C10.7559 6.15527 10.819 6.11189 10.8813 6.0626C10.9753 5.98858 11.0689 5.91048 11.1636 5.84406L10.7625 5.17527C10.4074 4.58071 9.87496 4.1124 9.23995 3.83624Z" fill="#F3BE00"/>
<path d="M22.698 20.8411C23.333 21.1172 24.0386 21.1873 24.7156 21.0415C24.8607 20.3645 24.7904 19.6595 24.5146 19.0243C24.2389 18.3891 23.7714 17.8561 23.1777 17.4997L22.512 17.1011C22.4898 17.1318 22.4662 17.1634 22.4421 17.1954C22.221 17.4944 21.9773 17.7758 21.7131 18.0374C21.5592 18.1915 21.4024 18.3356 21.244 18.4696C21.182 18.522 21.119 18.5654 21.0566 18.6147C20.9627 18.6887 20.8691 18.7668 20.7744 18.8332L21.1755 19.502C21.5305 20.0966 22.063 20.5649 22.698 20.8411Z" fill="#F3BE00"/>
<path fill-rule="evenodd" clip-rule="evenodd" d="M14.5208 26.302C14.6152 26.3734 14.7121 26.4418 14.8113 26.507C14.8113 26.507 15.589 26.8632 15.9459 26.8632C16.3026 26.8632 17.0653 26.507 17.0653 26.507C17.1842 26.4639 17.3048 26.3955 17.4249 26.3084V28.6783C17.4249 29.4044 16.7748 29.7674 15.9728 29.7674C15.1709 29.7674 14.5208 29.4044 14.5208 28.6783V26.302Z" fill="#9DC209"/>
<path fill-rule="evenodd" clip-rule="evenodd" d="M15.9728 19.603C19.9825 19.603 23.2331 16.3524 23.2331 12.3427C23.2331 8.33283 19.9825 5.08228 15.9728 5.08228C11.9629 5.08228 8.7124 8.33283 8.7124 12.3427C8.7124 16.3524 11.9629 19.603 15.9728 19.603ZM14.5208 7.98641C14.5208 8.38738 14.1958 8.71244 13.7948 8.71244C13.3939 8.71244 13.0688 8.38738 13.0688 7.98641C13.0688 7.58544 13.3939 7.26038 13.7948 7.26038C14.1958 7.26038 14.5208 7.58544 14.5208 7.98641ZM11.6167 10.1646C12.0176 10.1646 12.3427 9.83951 12.3427 9.43854C12.3427 9.0375 12.0176 8.71251 11.6167 8.71251C11.2156 8.71251 10.8906 9.0375 10.8906 9.43854C10.8906 9.83951 11.2156 10.1646 11.6167 10.1646ZM11.6167 13.0687C12.0176 13.0687 12.3427 12.7436 12.3427 12.3427C12.3427 11.9417 12.0176 11.6166 11.6167 11.6166C11.2156 11.6166 10.8906 11.9417 10.8906 12.3427C10.8906 12.7436 11.2156 13.0687 11.6167 13.0687ZM14.5208 10.8905C14.5208 11.2916 14.1958 11.6165 13.7948 11.6165C13.3939 11.6165 13.0688 11.2916 13.0688 10.8905C13.0688 10.4896 13.3939 10.1645 13.7948 10.1645C14.1958 10.1645 14.5208 10.4896 14.5208 10.8905ZM15.9728 13.0687C16.3739 13.0687 16.6989 12.7436 16.6989 12.3427C16.6989 11.9417 16.3739 11.6166 15.9728 11.6166C15.5719 11.6166 15.2468 11.9417 15.2468 12.3427C15.2468 12.7436 15.5719 13.0687 15.9728 13.0687ZM18.8771 13.7947C18.8771 14.1957 18.552 14.5207 18.1511 14.5207C17.7501 14.5207 17.425 14.1957 17.425 13.7947C17.425 13.3937 17.7501 13.0687 18.1511 13.0687C18.552 13.0687 18.8771 13.3937 18.8771 13.7947ZM15.9728 15.9728C16.3739 15.9728 16.6989 15.6477 16.6989 15.2468C16.6989 14.8458 16.3739 14.5207 15.9728 14.5207C15.5719 14.5207 15.2468 14.8458 15.2468 15.2468C15.2468 15.6477 15.5719 15.9728 15.9728 15.9728ZM18.1511 8.71244C18.552 8.71244 18.8771 8.38738 18.8771 7.98641C18.8771 7.58544 18.552 7.26038 18.1511 7.26038C17.7501 7.26038 17.425 7.58544 17.425 7.98641C17.425 8.38738 17.7501 8.71244 18.1511 8.71244ZM18.8771 16.6988C18.8771 17.0998 18.552 17.4248 18.1511 17.4248C17.7501 17.4248 17.425 17.0998 17.425 16.6988C17.425 16.2979 17.7501 15.9728 18.1511 15.9728C18.552 15.9728 18.8771 16.2979 18.8771 16.6988ZM13.7948 17.4248C14.1958 17.4248 14.5208 17.0998 14.5208 16.6988C14.5208 16.2979 14.1958 15.9728 13.7948 15.9728C13.3939 15.9728 13.0688 16.2979 13.0688 16.6988C13.0688 17.0998 13.3939 17.4248 13.7948 17.4248ZM14.5208 13.7947C14.5208 14.1957 14.1958 14.5207 13.7948 14.5207C13.3939 14.5207 13.0688 14.1957 13.0688 13.7947C13.0688 13.3937 13.3939 13.0687 13.7948 13.0687C14.1958 13.0687 14.5208 13.3937 14.5208 13.7947ZM11.6167 15.9728C12.0176 15.9728 12.3427 15.6477 12.3427 15.2468C12.3427 14.8458 12.0176 14.5207 11.6167 14.5207C11.2156 14.5207 10.8906 14.8458 10.8906 15.2468C10.8906 15.6477 11.2156 15.9728 11.6167 15.9728ZM16.6989 9.43854C16.6989 9.83951 16.3739 10.1646 15.9728 10.1646C15.5719 10.1646 15.2468 9.83951 15.2468 9.43854C15.2468 9.0375 15.5719 8.71251 15.9728 8.71251C16.3739 8.71251 16.6989 9.0375 16.6989 9.43854ZM20.3291 10.1646C20.73 10.1646 21.0551 9.83951 21.0551 9.43854C21.0551 9.0375 20.73 8.71251 20.3291 8.71251C19.9281 8.71251 19.603 9.0375 19.603 9.43854C19.603 9.83951 19.9281 10.1646 20.3291 10.1646ZM21.0551 15.2468C21.0551 15.6477 20.73 15.9728 20.3291 15.9728C19.9281 15.9728 19.603 15.6477 19.603 15.2468C19.603 14.8458 19.9281 14.5207 20.3291 14.5207C20.73 14.5207 21.0551 14.8458 21.0551 15.2468ZM18.1511 11.6165C18.552 11.6165 18.8771 11.2916 18.8771 10.8905C18.8771 10.4896 18.552 10.1645 18.1511 10.1645C17.7501 10.1645 17.425 10.4896 17.425 10.8905C17.425 11.2916 17.7501 11.6165 18.1511 11.6165ZM21.0551 12.3427C21.0551 12.7436 20.73 13.0687 20.3291 13.0687C19.9281 13.0687 19.603 12.7436 19.603 12.3427C19.603 11.9417 19.9281 11.6166 20.3291 11.6166C20.73 11.6166 21.0551 11.9417 21.0551 12.3427Z" fill="#BF5F06"/>
</g>
<defs>
<clipPath id="clip0_407_452">
<rect width="32" height="29.7674" fill="white"/>
</clipPath>
</defs>
</svg>
