<svg width="30" height="30" viewBox="0 0 30 30" fill="none" xmlns="http://www.w3.org/2000/svg">
<g clip-path="url(#clip0_401_349)">
<path d="M22.5446 18.9232C25.3795 18.4852 28.4397 20.1299 28.5686 20.2003C28.676 20.2587 28.7659 20.3457 28.8286 20.4519C28.8914 20.558 28.9247 20.6794 28.925 20.803C28.9253 20.9266 28.8925 21.0478 28.8302 21.1535C28.7678 21.2593 28.6784 21.3457 28.5713 21.4034C27.1065 22.2183 25.6885 23.1168 24.3241 24.0948C23.6758 24.5628 22.9277 24.8686 22.14 24.9873C20.9643 25.1403 19.7682 24.9813 18.6675 24.5259C18.6675 24.5259 17.6371 24.2231 17.6353 23.5415C17.6343 23.2008 18.3066 22.19 18.3066 22.19C18.3066 22.19 19.2887 20.5918 20.0269 20.0227C20.7651 19.4537 21.6291 19.0764 22.5446 18.9232Z" fill="#F3BE00"/>
<path d="M8.53903 21.1463C9.47449 21.2811 11.1289 22.1952 11.1289 22.1952L11.9457 24.4131C11.1863 25.3513 10.1972 26.0774 9.07453 26.5209C8.31431 26.8039 7.49817 26.9041 6.6921 26.8135C4.99902 26.6284 3.2968 26.5395 1.59365 26.5473C1.47007 26.5494 1.34823 26.5179 1.24119 26.4561C1.13414 26.3943 1.04591 26.3046 0.985928 26.1964C0.925948 26.0884 0.896473 25.966 0.90066 25.8425C0.904853 25.7189 0.942544 25.5989 1.0097 25.4951C1.09037 25.3705 3.0172 22.4309 5.75835 21.4217C6.64925 21.106 7.60351 21.0115 8.53903 21.1463Z" fill="#F3BE00"/>
<path d="M23.89 17.9095C24.5402 17.9209 25.1776 17.7281 25.7126 17.3584C25.5951 16.7187 25.2808 16.1324 24.8133 15.6804C24.3458 15.2284 23.7486 14.9339 23.1054 14.8381L22.3846 14.7314C22.3763 14.7661 22.3673 14.8019 22.3579 14.8385C22.2735 15.1772 22.1632 15.5091 22.028 15.8309C21.9497 16.0199 21.8655 16.2013 21.7763 16.3745C21.7414 16.4423 21.7023 16.5025 21.6658 16.5677C21.6109 16.6657 21.5578 16.7671 21.4995 16.8587L22.0879 17.2948C22.6095 17.6831 23.2398 17.8981 23.89 17.9095Z" fill="#302500"/>
<mask id="mask0_401_349" style="mask-type:luminance" maskUnits="userSpaceOnUse" x="18" y="11" width="11" height="11">
<path d="M26.9542 13.3677H20.136V19.504H26.9542V13.3677Z" fill="white" stroke="#302500" stroke-width="3" stroke-linejoin="round"/>
<path d="M23.8902 17.9092C24.5403 17.9206 25.1778 17.7279 25.7127 17.3581C25.5952 16.7185 25.2809 16.1321 24.8134 15.6802C24.3459 15.2282 23.7487 14.9337 23.1055 14.8379L22.3847 14.7312C22.3765 14.7658 22.3674 14.8017 22.358 14.8382C22.2736 15.177 22.1633 15.5088 22.0281 15.8307C21.9498 16.0196 21.8656 16.2011 21.7764 16.3742C21.7415 16.442 21.7024 16.5023 21.6659 16.5675C21.611 16.6655 21.5579 16.7668 21.4996 16.8585L22.088 17.2946C22.6096 17.6829 23.2399 17.8978 23.8902 17.9092Z" stroke="#302500" stroke-width="3" stroke-linejoin="round"/>
</mask>
<g mask="url(#mask0_401_349)">
<path d="M23.8902 17.9092C24.5403 17.9206 25.1778 17.7279 25.7127 17.3581C25.5952 16.7185 25.2809 16.1321 24.8134 15.6802C24.3459 15.2282 23.7487 14.9337 23.1055 14.8379L22.3847 14.7312C22.3765 14.7658 22.3674 14.8017 22.358 14.8382C22.2736 15.177 22.1633 15.5088 22.0281 15.8307C21.9498 16.0196 21.8656 16.2011 21.7764 16.3742C21.7415 16.442 21.7024 16.5023 21.6659 16.5675C21.611 16.6655 21.5579 16.7668 21.4996 16.8585L22.088 17.2946C22.6096 17.6829 23.2399 17.8978 23.8902 17.9092Z" stroke="#F3BE00" stroke-width="3" stroke-linejoin="round"/>
</g>
<path d="M6.1026 7.99242C5.45239 7.98103 4.81498 8.17378 4.28003 8.54353C4.39749 9.18308 4.71183 9.76944 5.17935 10.2214C5.64687 10.6735 6.24402 10.9679 6.88721 11.0637L7.60802 11.1704C7.61627 11.1357 7.62534 11.0999 7.63468 11.0634C7.71909 10.7246 7.82941 10.3928 7.96462 10.0709C8.04289 9.88194 8.12716 9.70051 8.21634 9.5274C8.25125 9.45962 8.29032 9.39935 8.3268 9.33417C8.38168 9.23612 8.4348 9.13474 8.49309 9.0431L7.90475 8.60701C7.38309 8.21872 6.7528 8.00381 6.1026 7.99242Z" fill="#302500"/>
<mask id="mask1_401_349" style="mask-type:luminance" maskUnits="userSpaceOnUse" x="1" y="5" width="11" height="10">
<path d="M9.73456 6.62817H2.91638V12.7645H9.73456V6.62817Z" fill="white" stroke="#302500" stroke-width="3" stroke-linejoin="round"/>
<path d="M6.1026 7.99242C5.45239 7.98103 4.81498 8.17378 4.28003 8.54353C4.39749 9.18308 4.71183 9.76944 5.17935 10.2214C5.64687 10.6735 6.24402 10.9679 6.88721 11.0637L7.60802 11.1704C7.61627 11.1357 7.62534 11.0999 7.63468 11.0634C7.71909 10.7246 7.82941 10.3928 7.96462 10.0709C8.04289 9.88194 8.12716 9.70051 8.21634 9.5274C8.25125 9.45962 8.29032 9.39935 8.3268 9.33417C8.38168 9.23612 8.4348 9.13474 8.49309 9.0431L7.90475 8.60701C7.38309 8.21872 6.7528 8.00381 6.1026 7.99242Z" stroke="#302500" stroke-width="3" stroke-linejoin="round"/>
</mask>
<g mask="url(#mask1_401_349)">
<path d="M6.1026 7.99242C5.45239 7.98103 4.81498 8.17378 4.28003 8.54353C4.39749 9.18308 4.71183 9.76944 5.17935 10.2214C5.64687 10.6735 6.24402 10.9679 6.88721 11.0637L7.60802 11.1704C7.61627 11.1357 7.62534 11.0999 7.63468 11.0634C7.71909 10.7246 7.82941 10.3928 7.96462 10.0709C8.04289 9.88194 8.12716 9.70051 8.21634 9.5274C8.25125 9.45962 8.29032 9.39935 8.3268 9.33417C8.38168 9.23612 8.4348 9.13474 8.49309 9.0431L7.90475 8.60701C7.38309 8.21872 6.7528 8.00381 6.1026 7.99242Z" stroke="#F3BE00" stroke-width="3" stroke-linejoin="round"/>
</g>
<path d="M10.0378 21.8446C10.0264 22.4948 10.2192 23.1322 10.5889 23.6671C11.2286 23.5497 11.8149 23.2353 12.2669 22.7678C12.7189 22.3003 13.0134 21.7031 13.1091 21.06L13.2159 20.3392C13.1812 20.3309 13.1454 20.3219 13.1089 20.3124C12.7701 20.2281 12.4382 20.1178 12.1164 19.9826C11.9274 19.9042 11.746 19.82 11.5728 19.7309C11.5051 19.6959 11.4448 19.6569 11.3796 19.6204C11.2816 19.5655 11.1802 19.5123 11.0886 19.4541L10.6525 20.0424C10.2642 20.5641 10.0492 21.1944 10.0378 21.8446Z" fill="#302500"/>
<mask id="mask2_401_349" style="mask-type:luminance" maskUnits="userSpaceOnUse" x="7" y="16" width="10" height="11">
<path d="M14.8101 18.0906H8.67371V24.9088H14.8101V18.0906Z" fill="white" stroke="#302500" stroke-width="3" stroke-linejoin="round"/>
<path d="M10.0378 21.8446C10.0264 22.4948 10.2192 23.1322 10.5889 23.6671C11.2286 23.5497 11.8149 23.2353 12.2669 22.7678C12.7189 22.3003 13.0134 21.7031 13.1091 21.06L13.2159 20.3392C13.1812 20.3309 13.1454 20.3219 13.1089 20.3124C12.7701 20.2281 12.4382 20.1178 12.1164 19.9826C11.9274 19.9042 11.746 19.82 11.5728 19.7309C11.5051 19.6959 11.4448 19.6569 11.3796 19.6204C11.2816 19.5655 11.1802 19.5123 11.0886 19.4541L10.6525 20.0424C10.2642 20.5641 10.0492 21.1944 10.0378 21.8446Z" stroke="#302500" stroke-width="3" stroke-linejoin="round"/>
</mask>
<g mask="url(#mask2_401_349)">
<path d="M10.0378 21.8446C10.0264 22.4948 10.2192 23.1322 10.5889 23.6671C11.2286 23.5497 11.8149 23.2353 12.2669 22.7678C12.7189 22.3003 13.0134 21.7031 13.1091 21.06L13.2159 20.3392C13.1812 20.3309 13.1454 20.3219 13.1089 20.3124C12.7701 20.2281 12.4382 20.1178 12.1164 19.9826C11.9274 19.9042 11.746 19.82 11.5728 19.7309C11.5051 19.6959 11.4448 19.6569 11.3796 19.6204C11.2816 19.5655 11.1802 19.5123 11.0886 19.4541L10.6525 20.0424C10.2642 20.5641 10.0492 21.1944 10.0378 21.8446Z" stroke="#F3BE00" stroke-width="3" stroke-linejoin="round"/>
</g>
<path d="M19.9548 4.05719C19.9662 3.40698 19.7735 2.76957 19.4037 2.23462C18.7642 2.35208 18.1778 2.66641 17.7258 3.13394C17.2738 3.60146 16.9793 4.19861 16.8835 4.8418L16.7769 5.56261C16.8115 5.57085 16.8474 5.57995 16.8838 5.58931C17.2226 5.6737 17.5545 5.78399 17.8764 5.91923C18.0653 5.9975 18.2467 6.08172 18.4199 6.17093C18.4876 6.20586 18.5479 6.24492 18.6131 6.28137C18.7111 6.33628 18.8125 6.38942 18.9041 6.44768L19.3402 5.85933C19.7285 5.33766 19.9434 4.70739 19.9548 4.05719Z" fill="#302500"/>
<mask id="mask3_401_349" style="mask-type:luminance" maskUnits="userSpaceOnUse" x="13" y="-1" width="11" height="11">
<path d="M21.5496 0.87085H15.4132V7.68903H21.5496V0.87085Z" fill="white" stroke="#302500" stroke-width="3" stroke-linejoin="round"/>
<path d="M19.9548 4.05694C19.9662 3.40673 19.7735 2.76932 19.4037 2.23438C18.7642 2.35183 18.1778 2.66617 17.7258 3.13369C17.2738 3.60122 16.9793 4.19837 16.8835 4.84156L16.7769 5.56237C16.8115 5.57061 16.8474 5.5797 16.8838 5.58906C17.2226 5.67345 17.5545 5.78375 17.8764 5.91898C18.0653 5.99725 18.2467 6.08148 18.4199 6.17069C18.4876 6.20562 18.5479 6.24468 18.6131 6.28113C18.7111 6.33604 18.8125 6.38918 18.9041 6.44744L19.3402 5.85908C19.7285 5.33741 19.9434 4.70715 19.9548 4.05694Z" stroke="#302500" stroke-width="3" stroke-linejoin="round"/>
</mask>
<g mask="url(#mask3_401_349)">
<path d="M19.9548 4.05694C19.9662 3.40673 19.7735 2.76932 19.4037 2.23438C18.7642 2.35183 18.1778 2.66617 17.7258 3.13369C17.2738 3.60122 16.9793 4.19837 16.8835 4.84156L16.7769 5.56237C16.8115 5.57061 16.8474 5.5797 16.8838 5.58906C17.2226 5.67345 17.5545 5.78375 17.8764 5.91898C18.0653 5.99725 18.2467 6.08148 18.4199 6.17069C18.4876 6.20562 18.5479 6.24468 18.6131 6.28113C18.7111 6.33604 18.8125 6.38918 18.9041 6.44744L19.3402 5.85908C19.7285 5.33741 19.9434 4.70715 19.9548 4.05694Z" stroke="#F3BE00" stroke-width="3" stroke-linejoin="round"/>
</g>
<path d="M5.20141 15.7335C4.7336 16.1852 4.41917 16.7722 4.30237 17.412C4.83768 17.7812 5.47456 17.9735 6.12475 17.9625C6.77495 17.9515 7.40542 17.7375 7.92796 17.3505L8.5131 16.9162C8.49442 16.8859 8.47546 16.8541 8.4563 16.8216C8.27644 16.5225 8.11976 16.2098 7.98783 15.8866C7.90955 15.6976 7.84083 15.5097 7.78144 15.3242C7.75826 15.2517 7.74326 15.1814 7.72294 15.1095C7.69246 15.0014 7.6583 14.8922 7.63471 14.7861L6.91035 14.8938C6.26689 14.9882 5.66923 15.2818 5.20141 15.7335Z" fill="#302500"/>
<mask id="mask4_401_349" style="mask-type:luminance" maskUnits="userSpaceOnUse" x="1" y="11" width="11" height="11">
<path d="M9.7569 13.4224H2.93872V19.5587H9.7569V13.4224Z" fill="white" stroke="#302500" stroke-width="3" stroke-linejoin="round"/>
<path d="M5.20141 15.7333C4.7336 16.185 4.41917 16.772 4.30237 17.4117C4.83768 17.7809 5.47456 17.9733 6.12475 17.9623C6.77495 17.9513 7.40542 17.7373 7.92796 17.3502L8.5131 16.916C8.49442 16.8856 8.47546 16.8538 8.4563 16.8214C8.27644 16.5222 8.11976 16.2096 7.98783 15.8863C7.90955 15.6973 7.84083 15.5095 7.78144 15.324C7.75826 15.2514 7.74326 15.1811 7.72294 15.1093C7.69246 15.0011 7.6583 14.8919 7.63471 14.7859L6.91035 14.8935C6.26689 14.9879 5.66923 15.2816 5.20141 15.7333Z" stroke="#302500" stroke-width="3" stroke-linejoin="round"/>
</mask>
<g mask="url(#mask4_401_349)">
<path d="M5.20141 15.7333C4.7336 16.185 4.41917 16.772 4.30237 17.4117C4.83768 17.7809 5.47456 17.9733 6.12475 17.9623C6.77495 17.9513 7.40542 17.7373 7.92796 17.3502L8.5131 16.916C8.49442 16.8856 8.47546 16.8538 8.4563 16.8214C8.27644 16.5222 8.11976 16.2096 7.98783 15.8863C7.90955 15.6973 7.84083 15.5095 7.78144 15.324C7.75826 15.2514 7.74326 15.1811 7.72294 15.1093C7.69246 15.0011 7.6583 14.8919 7.63471 14.7859L6.91035 14.8935C6.26689 14.9879 5.66923 15.2816 5.20141 15.7333Z" stroke="#F3BE00" stroke-width="3" stroke-linejoin="round"/>
</g>
<path d="M24.7913 10.1682C25.2591 9.71646 25.5736 9.12948 25.6904 8.48973C25.155 8.12053 24.5181 7.92819 23.868 7.93917C23.2178 7.95014 22.5873 8.16417 22.0647 8.55123L21.4796 8.98548C21.4983 9.01582 21.5173 9.0476 21.5364 9.08005C21.7163 9.37923 21.873 9.69185 22.005 10.0151C22.0832 10.2041 22.152 10.3919 22.2113 10.5775C22.2345 10.65 22.2495 10.7203 22.2698 10.7922C22.3003 10.9003 22.3344 11.0095 22.358 11.1156L23.0824 11.0079C23.7259 10.9135 24.3235 10.6199 24.7913 10.1682Z" fill="#302500"/>
<mask id="mask5_401_349" style="mask-type:luminance" maskUnits="userSpaceOnUse" x="18" y="5" width="11" height="10">
<path d="M26.9341 6.5752H20.116V12.7116H26.9341V6.5752Z" fill="white" stroke="#302500" stroke-width="3" stroke-linejoin="round"/>
<path d="M24.7913 10.1682C25.2591 9.71646 25.5736 9.12948 25.6904 8.48973C25.155 8.12053 24.5181 7.92819 23.868 7.93917C23.2178 7.95014 22.5873 8.16417 22.0647 8.55123L21.4796 8.98548C21.4983 9.01582 21.5173 9.0476 21.5364 9.08005C21.7163 9.37923 21.873 9.69185 22.005 10.0151C22.0832 10.2041 22.152 10.3919 22.2113 10.5775C22.2345 10.65 22.2495 10.7203 22.2698 10.7922C22.3003 10.9003 22.3344 11.0095 22.358 11.1156L23.0824 11.0079C23.7259 10.9135 24.3235 10.6199 24.7913 10.1682Z" stroke="#302500" stroke-width="3" stroke-linejoin="round"/>
</mask>
<g mask="url(#mask5_401_349)">
<path d="M24.7913 10.1682C25.2591 9.71646 25.5736 9.12948 25.6904 8.48973C25.155 8.12053 24.5181 7.92819 23.868 7.93917C23.2178 7.95014 22.5873 8.16417 22.0647 8.55123L21.4796 8.98548C21.4983 9.01582 21.5173 9.0476 21.5364 9.08005C21.7163 9.37923 21.873 9.69185 22.005 10.0151C22.0832 10.2041 22.152 10.3919 22.2113 10.5775C22.2345 10.65 22.2495 10.7203 22.2698 10.7922C22.3003 10.9003 22.3344 11.0095 22.358 11.1156L23.0824 11.0079C23.7259 10.9135 24.3235 10.6199 24.7913 10.1682Z" stroke="#F3BE00" stroke-width="3" stroke-linejoin="round"/>
</g>
<path d="M12.2137 3.15588C11.762 2.68807 11.175 2.37364 10.5353 2.25684C10.1661 2.79214 9.97372 3.42903 9.9847 4.07922C9.99568 4.72942 10.2097 5.3599 10.5968 5.88244L11.031 6.46757C11.0614 6.44888 11.0931 6.42996 11.1256 6.41077C11.4248 6.23089 11.7374 6.07425 12.0606 5.94227C12.2496 5.86399 12.4375 5.79527 12.623 5.73591C12.6955 5.71271 12.7658 5.69771 12.8377 5.67738C12.9458 5.64691 13.0551 5.6128 13.1611 5.58918L13.0534 4.86478C12.9591 4.22136 12.6654 3.6237 12.2137 3.15588Z" fill="#302500"/>
<mask id="mask6_401_349" style="mask-type:luminance" maskUnits="userSpaceOnUse" x="7" y="-1" width="10" height="11">
<path d="M14.757 0.893066H8.62061V7.71125H14.757V0.893066Z" fill="white" stroke="#302500" stroke-width="3" stroke-linejoin="round"/>
<path d="M12.2137 3.15564C11.762 2.68782 11.175 2.37339 10.5353 2.25659C10.1661 2.7919 9.97372 3.42879 9.9847 4.07898C9.99568 4.72917 10.2097 5.35965 10.5968 5.88219L11.031 6.46733C11.0614 6.44863 11.0931 6.42971 11.1256 6.41053C11.4248 6.23064 11.7374 6.07401 12.0606 5.94202C12.2496 5.86375 12.4375 5.79502 12.623 5.73566C12.6955 5.71246 12.7658 5.69746 12.8377 5.67714C12.9458 5.64667 13.0551 5.61255 13.1611 5.58894L13.0534 4.86454C12.9591 4.22111 12.6654 3.62345 12.2137 3.15564Z" stroke="#302500" stroke-width="3" stroke-linejoin="round"/>
</mask>
<g mask="url(#mask6_401_349)">
<path d="M12.2137 3.15564C11.762 2.68782 11.175 2.37339 10.5353 2.25659C10.1661 2.7919 9.97372 3.42879 9.9847 4.07898C9.99568 4.72917 10.2097 5.35965 10.5968 5.88219L11.031 6.46733C11.0614 6.44863 11.0931 6.42971 11.1256 6.41053C11.4248 6.23064 11.7374 6.07401 12.0606 5.94202C12.2496 5.86375 12.4375 5.79502 12.623 5.73566C12.6955 5.71246 12.7658 5.69746 12.8377 5.67714C12.9458 5.64667 13.0551 5.61255 13.1611 5.58894L13.0534 4.86454C12.9591 4.22111 12.6654 3.62345 12.2137 3.15564Z" stroke="#F3BE00" stroke-width="3" stroke-linejoin="round"/>
</g>
<path d="M17.7789 22.7458C18.2306 23.2136 18.8176 23.528 19.4574 23.6449C19.8266 23.1095 20.0189 22.4726 20.0079 21.8224C19.997 21.1722 19.7829 20.5418 19.3959 20.0192L18.9616 19.4341C18.9313 19.4528 18.8995 19.4717 18.867 19.4909C18.5678 19.6708 18.2552 19.8274 17.932 19.9594C17.743 20.0377 17.5552 20.1064 17.3696 20.1657C17.297 20.189 17.2268 20.2039 17.1549 20.2243C17.0468 20.2547 16.9376 20.2889 16.8315 20.3125L16.9392 21.0369C17.0335 21.6803 17.3272 22.2779 17.7789 22.7458Z" fill="#302500"/>
<mask id="mask7_401_349" style="mask-type:luminance" maskUnits="userSpaceOnUse" x="13" y="16" width="11" height="11">
<path d="M21.6043 18.0706H15.4679V24.8887H21.6043V18.0706Z" fill="white" stroke="#302500" stroke-width="3" stroke-linejoin="round"/>
<path d="M17.7789 22.7458C18.2306 23.2136 18.8176 23.528 19.4574 23.6449C19.8266 23.1095 20.0189 22.4726 20.0079 21.8224C19.997 21.1722 19.7829 20.5418 19.3959 20.0192L18.9616 19.4341C18.9313 19.4528 18.8995 19.4717 18.867 19.4909C18.5678 19.6708 18.2552 19.8274 17.932 19.9594C17.743 20.0377 17.5552 20.1064 17.3696 20.1657C17.297 20.189 17.2268 20.2039 17.1549 20.2243C17.0468 20.2547 16.9376 20.2889 16.8315 20.3125L16.9392 21.0369C17.0335 21.6803 17.3272 22.2779 17.7789 22.7458Z" stroke="#302500" stroke-width="3" stroke-linejoin="round"/>
</mask>
<g mask="url(#mask7_401_349)">
<path d="M17.7789 22.7458C18.2306 23.2136 18.8176 23.528 19.4574 23.6449C19.8266 23.1095 20.0189 22.4726 20.0079 21.8224C19.997 21.1722 19.7829 20.5418 19.3959 20.0192L18.9616 19.4341C18.9313 19.4528 18.8995 19.4717 18.867 19.4909C18.5678 19.6708 18.2552 19.8274 17.932 19.9594C17.743 20.0377 17.5552 20.1064 17.3696 20.1657C17.297 20.189 17.2268 20.2039 17.1549 20.2243C17.0468 20.2547 16.9376 20.2889 16.8315 20.3125L16.9392 21.0369C17.0335 21.6803 17.3272 22.2779 17.7789 22.7458Z" stroke="#F3BE00" stroke-width="3" stroke-linejoin="round"/>
</g>
<path d="M25.1106 14.1285C25.7157 13.8902 26.2308 13.4683 26.5835 12.9219C26.2303 12.376 25.7155 11.9546 25.1105 11.7159C24.5056 11.4772 23.8413 11.4337 23.2104 11.5913L22.5036 11.7686C22.5093 11.8037 22.5146 11.8404 22.5199 11.8777C22.5716 12.2229 22.5967 12.5717 22.5949 12.9208C22.5949 13.1254 22.5865 13.3252 22.5704 13.5193C22.564 13.5953 22.551 13.6659 22.5423 13.7401C22.529 13.8517 22.5187 13.9657 22.5 14.0726L23.2105 14.2504C23.841 14.4094 24.5056 14.3668 25.1106 14.1285Z" fill="#302500"/>
<mask id="mask8_401_349" style="mask-type:luminance" maskUnits="userSpaceOnUse" x="19" y="8" width="11" height="10">
<path d="M27.9545 10.1345H21.1364V15.5891H27.9545V10.1345Z" fill="white" stroke="#302500" stroke-width="3" stroke-linejoin="round"/>
<path d="M25.1106 14.1283C25.7157 13.89 26.2308 13.468 26.5835 12.9217C26.2303 12.3757 25.7155 11.9543 25.1105 11.7156C24.5056 11.477 23.8413 11.4334 23.2104 11.591L22.5036 11.7683C22.5093 11.8035 22.5146 11.8401 22.5199 11.8774C22.5716 12.2227 22.5967 12.5714 22.5949 12.9206C22.5949 13.1251 22.5865 13.325 22.5704 13.5191C22.564 13.595 22.551 13.6657 22.5423 13.7399C22.529 13.8514 22.5187 13.9654 22.5 14.0724L23.2105 14.2501C23.841 14.4092 24.5056 14.3666 25.1106 14.1283Z" stroke="#302500" stroke-width="3" stroke-linejoin="round"/>
</mask>
<g mask="url(#mask8_401_349)">
<path d="M25.1106 14.1283C25.7157 13.89 26.2308 13.468 26.5835 12.9217C26.2303 12.3757 25.7155 11.9543 25.1105 11.7156C24.5056 11.477 23.8413 11.4334 23.2104 11.591L22.5036 11.7683C22.5093 11.8035 22.5146 11.8401 22.5199 11.8774C22.5716 12.2227 22.5967 12.5714 22.5949 12.9206C22.5949 13.1251 22.5865 13.325 22.5704 13.5191C22.564 13.595 22.551 13.6657 22.5423 13.7399C22.529 13.8514 22.5187 13.9654 22.5 14.0724L23.2105 14.2501C23.841 14.4092 24.5056 14.3666 25.1106 14.1283Z" stroke="#F3BE00" stroke-width="3" stroke-linejoin="round"/>
</g>
<path d="M4.88198 11.7732C4.27692 12.0115 3.76178 12.4335 3.40906 12.9798C3.76233 13.5257 4.27713 13.9472 4.88204 14.1859C5.48694 14.4245 6.15133 14.4681 6.78222 14.3104L7.48899 14.1332C7.48333 14.098 7.47801 14.0614 7.47269 14.0241C7.42101 13.6788 7.39592 13.3301 7.39769 12.9809C7.39769 12.7763 7.40608 12.5765 7.42224 12.3824C7.42858 12.3064 7.4416 12.2358 7.45033 12.1616C7.46356 12.0501 7.47385 11.9361 7.4926 11.8291L6.78215 11.6513C6.1516 11.4923 5.48705 11.5349 4.88198 11.7732Z" fill="#302500"/>
<mask id="mask9_401_349" style="mask-type:luminance" maskUnits="userSpaceOnUse" x="0" y="8" width="11" height="10">
<path d="M8.86359 10.1934H2.04541V15.6479H8.86359V10.1934Z" fill="white" stroke="#302500" stroke-width="3" stroke-linejoin="round"/>
<path d="M4.88198 11.7734C4.27692 12.0117 3.76178 12.4337 3.40906 12.98C3.76233 13.526 4.27713 13.9474 4.88204 14.1861C5.48694 14.4248 6.15133 14.4683 6.78222 14.3107L7.48899 14.1334C7.48333 14.0982 7.47801 14.0616 7.47269 14.0243C7.42101 13.679 7.39592 13.3303 7.39769 12.9811C7.39769 12.7766 7.40608 12.5768 7.42224 12.3826C7.42858 12.3067 7.4416 12.236 7.45033 12.1619C7.46356 12.0503 7.47385 11.9363 7.4926 11.8293L6.78215 11.6516C6.1516 11.4925 5.48705 11.5351 4.88198 11.7734Z" stroke="#302500" stroke-width="3" stroke-linejoin="round"/>
</mask>
<g mask="url(#mask9_401_349)">
<path d="M4.88198 11.7734C4.27692 12.0117 3.76178 12.4337 3.40906 12.98C3.76233 13.526 4.27713 13.9474 4.88204 14.1861C5.48694 14.4248 6.15133 14.4683 6.78222 14.3107L7.48899 14.1334C7.48333 14.0982 7.47801 14.0616 7.47269 14.0243C7.42101 13.679 7.39592 13.3303 7.39769 12.9811C7.39769 12.7766 7.40608 12.5768 7.42224 12.3826C7.42858 12.3067 7.4416 12.236 7.45033 12.1619C7.46356 12.0503 7.47385 11.9363 7.4926 11.8293L6.78215 11.6516C6.1516 11.4925 5.48705 11.5351 4.88198 11.7734Z" stroke="#F3BE00" stroke-width="3" stroke-linejoin="round"/>
</g>
<path d="M13.8187 23.0652C14.057 23.6702 14.4791 24.1854 15.0253 24.5381C15.5713 24.1849 15.9928 23.67 16.2314 23.0651C16.4701 22.4602 16.5136 21.7959 16.356 21.165L16.1787 20.4582C16.1435 20.4639 16.1069 20.4692 16.0696 20.4745C15.7243 20.5262 15.3756 20.5513 15.0264 20.5495C14.8219 20.5495 14.622 20.5411 14.4279 20.525C14.352 20.5186 14.2813 20.5056 14.2072 20.4969C14.0956 20.4836 13.9816 20.4733 13.8746 20.4546L13.6969 21.165C13.5378 21.7956 13.5804 22.4602 13.8187 23.0652Z" fill="#302500"/>
<mask id="mask10_401_349" style="mask-type:luminance" maskUnits="userSpaceOnUse" x="10" y="17" width="10" height="11">
<path d="M17.8126 19.0908H12.358V25.909H17.8126V19.0908Z" fill="white" stroke="#302500" stroke-width="3" stroke-linejoin="round"/>
<path d="M13.8187 23.065C14.057 23.67 14.4791 24.1852 15.0253 24.5379C15.5713 24.1846 15.9928 23.6698 16.2314 23.0649C16.4701 22.46 16.5136 21.7956 16.356 21.1647L16.1787 20.458C16.1435 20.4636 16.1069 20.4689 16.0696 20.4743C15.7243 20.5259 15.3756 20.551 15.0264 20.5493C14.8219 20.5493 14.622 20.5409 14.4279 20.5247C14.352 20.5184 14.2813 20.5053 14.2072 20.4966C14.0956 20.4834 13.9816 20.4731 13.8746 20.4543L13.6969 21.1648C13.5378 21.7953 13.5804 22.4599 13.8187 23.065Z" stroke="#302500" stroke-width="3" stroke-linejoin="round"/>
</mask>
<g mask="url(#mask10_401_349)">
<path d="M13.8187 23.065C14.057 23.67 14.4791 24.1852 15.0253 24.5379C15.5713 24.1846 15.9928 23.6698 16.2314 23.0649C16.4701 22.46 16.5136 21.7956 16.356 21.1647L16.1787 20.458C16.1435 20.4636 16.1069 20.4689 16.0696 20.4743C15.7243 20.5259 15.3756 20.551 15.0264 20.5493C14.8219 20.5493 14.622 20.5409 14.4279 20.5247C14.352 20.5184 14.2813 20.5053 14.2072 20.4966C14.0956 20.4834 13.9816 20.4731 13.8746 20.4543L13.6969 21.1648C13.5378 21.7953 13.5804 22.4599 13.8187 23.065Z" stroke="#F3BE00" stroke-width="3" stroke-linejoin="round"/>
</g>
<path d="M16.1739 2.83645C15.9357 2.23138 15.5137 1.71625 14.9673 1.36353C14.4214 1.7168 14 2.2316 13.7613 2.8365C13.5226 3.44141 13.4791 4.1058 13.6367 4.73668L13.814 5.44346C13.8492 5.4378 13.8858 5.43248 13.9231 5.42716C14.2683 5.37548 14.6171 5.35041 14.9662 5.35216C15.1708 5.35216 15.3706 5.36055 15.5647 5.37671C15.6407 5.38305 15.7113 5.39607 15.7855 5.4048C15.8971 5.41802 16.0111 5.42832 16.118 5.44707L16.2958 4.73662C16.4549 4.10607 16.4122 3.44152 16.1739 2.83645Z" fill="#302500"/>
<mask id="mask11_401_349" style="mask-type:luminance" maskUnits="userSpaceOnUse" x="10" y="-2" width="10" height="11">
<path d="M17.754 0H12.2994V6.81818H17.754V0Z" fill="white" stroke="#302500" stroke-width="3" stroke-linejoin="round"/>
<path d="M16.1739 2.83645C15.9357 2.23138 15.5137 1.71625 14.9673 1.36353C14.4214 1.7168 14 2.2316 13.7613 2.8365C13.5226 3.44141 13.4791 4.1058 13.6367 4.73668L13.814 5.44346C13.8492 5.4378 13.8858 5.43248 13.9231 5.42716C14.2683 5.37548 14.6171 5.35041 14.9662 5.35216C15.1708 5.35216 15.3706 5.36055 15.5647 5.37671C15.6407 5.38305 15.7113 5.39607 15.7855 5.4048C15.8971 5.41802 16.0111 5.42832 16.118 5.44707L16.2958 4.73662C16.4549 4.10607 16.4122 3.44152 16.1739 2.83645Z" stroke="#302500" stroke-width="3" stroke-linejoin="round"/>
</mask>
<g mask="url(#mask11_401_349)">
<path d="M16.1739 2.83645C15.9357 2.23138 15.5137 1.71625 14.9673 1.36353C14.4214 1.7168 14 2.2316 13.7613 2.8365C13.5226 3.44141 13.4791 4.1058 13.6367 4.73668L13.814 5.44346C13.8492 5.4378 13.8858 5.43248 13.9231 5.42716C14.2683 5.37548 14.6171 5.35041 14.9662 5.35216C15.1708 5.35216 15.3706 5.36055 15.5647 5.37671C15.6407 5.38305 15.7113 5.39607 15.7855 5.4048C15.8971 5.41802 16.0111 5.42832 16.118 5.44707L16.2958 4.73662C16.4549 4.10607 16.4122 3.44152 16.1739 2.83645Z" stroke="#F3BE00" stroke-width="3" stroke-linejoin="round"/>
</g>
<path d="M7.01179 19.2701C6.75242 19.8664 6.68657 20.5291 6.82348 21.1648C7.45934 21.3011 8.12132 21.235 8.71784 20.9761C9.31429 20.7171 9.81495 20.2781 10.1496 19.7206L10.524 19.0954C10.4951 19.0746 10.4654 19.0524 10.4353 19.0298C10.1546 18.8222 9.89029 18.5933 9.64463 18.3452C9.50002 18.2006 9.36461 18.0533 9.23882 17.9046C9.18959 17.8465 9.14882 17.7873 9.10252 17.7286C9.03304 17.6404 8.95968 17.5525 8.89729 17.4636L8.26927 17.8403C7.71086 18.1737 7.27109 18.6737 7.01179 19.2701Z" fill="#302500"/>
<mask id="mask12_401_349" style="mask-type:luminance" maskUnits="userSpaceOnUse" x="2" y="13" width="13" height="13">
<path d="M12.6461 15.427H3.96802V24.1051H12.6461V15.427Z" fill="white" stroke="#302500" stroke-width="3" stroke-linejoin="round"/>
<path d="M7.01179 19.2701C6.75242 19.8664 6.68657 20.5291 6.82348 21.1648C7.45934 21.3011 8.12132 21.235 8.71784 20.9761C9.31429 20.7171 9.81495 20.2781 10.1496 19.7206L10.524 19.0954C10.4951 19.0746 10.4654 19.0524 10.4353 19.0298C10.1546 18.8222 9.89029 18.5933 9.64463 18.3452C9.50002 18.2006 9.36461 18.0533 9.23882 17.9046C9.18959 17.8465 9.14882 17.7873 9.10252 17.7286C9.03304 17.6404 8.95968 17.5525 8.89729 17.4636L8.26927 17.8403C7.71086 18.1737 7.27109 18.6737 7.01179 19.2701Z" stroke="#302500" stroke-width="3" stroke-linejoin="round"/>
</mask>
<g mask="url(#mask12_401_349)">
<path d="M7.01179 19.2701C6.75242 19.8664 6.68657 20.5291 6.82348 21.1648C7.45934 21.3011 8.12132 21.235 8.71784 20.9761C9.31429 20.7171 9.81495 20.2781 10.1496 19.7206L10.524 19.0954C10.4951 19.0746 10.4654 19.0524 10.4353 19.0298C10.1546 18.8222 9.89029 18.5933 9.64463 18.3452C9.50002 18.2006 9.36461 18.0533 9.23882 17.9046C9.18959 17.8465 9.14882 17.7873 9.10252 17.7286C9.03304 17.6404 8.95968 17.5525 8.89729 17.4636L8.26927 17.8403C7.71086 18.1737 7.27109 18.6737 7.01179 19.2701Z" stroke="#F3BE00" stroke-width="3" stroke-linejoin="round"/>
</g>
<path d="M22.9809 6.63165C23.2403 6.03529 23.3062 5.37264 23.1693 4.73692C22.5334 4.60067 21.8713 4.66669 21.2749 4.92566C20.6784 5.18462 20.1778 5.62362 19.8431 6.1812L19.4688 6.80631C19.4976 6.82718 19.5273 6.84934 19.5574 6.87191C19.8381 7.07952 20.1024 7.30841 20.3481 7.55652C20.4927 7.7012 20.628 7.84841 20.7539 7.99711C20.8031 8.05527 20.8438 8.11445 20.8901 8.17309C20.9597 8.26131 21.033 8.3492 21.0954 8.43811L21.7235 8.06141C22.2818 7.72806 22.7216 7.22802 22.9809 6.63165Z" fill="#302500"/>
<mask id="mask13_401_349" style="mask-type:luminance" maskUnits="userSpaceOnUse" x="15" y="0" width="13" height="13">
<path d="M26.1039 1.88623H17.4258V10.5643H26.1039V1.88623Z" fill="white" stroke="#302500" stroke-width="3" stroke-linejoin="round"/>
<path d="M22.9809 6.63165C23.2403 6.03529 23.3062 5.37264 23.1693 4.73692C22.5334 4.60067 21.8713 4.66669 21.2749 4.92566C20.6784 5.18462 20.1778 5.62362 19.8431 6.1812L19.4688 6.80631C19.4976 6.82718 19.5273 6.84934 19.5574 6.87191C19.8381 7.07952 20.1024 7.30841 20.3481 7.55652C20.4927 7.7012 20.628 7.84841 20.7539 7.99711C20.8031 8.05527 20.8438 8.11445 20.8901 8.17309C20.9597 8.26131 21.033 8.3492 21.0954 8.43811L21.7235 8.06141C22.2818 7.72806 22.7216 7.22802 22.9809 6.63165Z" stroke="#302500" stroke-width="3" stroke-linejoin="round"/>
</mask>
<g mask="url(#mask13_401_349)">
<path d="M22.9809 6.63165C23.2403 6.03529 23.3062 5.37264 23.1693 4.73692C22.5334 4.60067 21.8713 4.66669 21.2749 4.92566C20.6784 5.18462 20.1778 5.62362 19.8431 6.1812L19.4688 6.80631C19.4976 6.82718 19.5273 6.84934 19.5574 6.87191C19.8381 7.07952 20.1024 7.30841 20.3481 7.55652C20.4927 7.7012 20.628 7.84841 20.7539 7.99711C20.8031 8.05527 20.8438 8.11445 20.8901 8.17309C20.9597 8.26131 21.033 8.3492 21.0954 8.43811L21.7235 8.06141C22.2818 7.72806 22.7216 7.22802 22.9809 6.63165Z" stroke="#F3BE00" stroke-width="3" stroke-linejoin="round"/>
</g>
<path d="M8.67703 4.96624C8.08071 4.70689 7.41805 4.64104 6.78233 4.77794C6.64608 5.41379 6.71211 6.0758 6.97105 6.6723C7.23001 7.26881 7.66903 7.7694 8.22662 8.10403L8.85171 8.47842C8.87258 8.44958 8.89474 8.41992 8.9173 8.38978C9.12492 8.10908 9.3538 7.84474 9.60192 7.59908C9.7466 7.45446 9.8938 7.31906 10.0425 7.19326C10.1007 7.14403 10.1598 7.10333 10.2185 7.05703C10.3067 6.98749 10.3946 6.91412 10.4835 6.85174L10.1068 6.22371C9.77346 5.66537 9.27342 5.22558 8.67703 4.96624Z" fill="#302500"/>
<mask id="mask14_401_349" style="mask-type:luminance" maskUnits="userSpaceOnUse" x="2" y="0" width="13" height="13">
<path d="M12.5202 1.92261H3.84204V10.6007H12.5202V1.92261Z" fill="white" stroke="#302500" stroke-width="3" stroke-linejoin="round"/>
<path d="M8.67715 4.96648C8.08083 4.70714 7.41818 4.64128 6.78245 4.77818C6.6462 5.41403 6.71223 6.07605 6.97118 6.67254C7.23013 7.26905 7.66915 7.76964 8.22674 8.10428L8.85183 8.47866C8.8727 8.44982 8.89486 8.42016 8.91743 8.39003C9.12504 8.10932 9.35393 7.84498 9.60204 7.59932C9.74672 7.45471 9.89393 7.3193 10.0426 7.1935C10.1008 7.14428 10.16 7.10357 10.2186 7.05728C10.3068 6.98773 10.3947 6.91437 10.4836 6.85198L10.1069 6.22396C9.77358 5.66561 9.27354 5.22582 8.67715 4.96648Z" stroke="#302500" stroke-width="3" stroke-linejoin="round"/>
</mask>
<g mask="url(#mask14_401_349)">
<path d="M8.67715 4.96648C8.08083 4.70714 7.41818 4.64128 6.78245 4.77818C6.6462 5.41403 6.71223 6.07605 6.97118 6.67254C7.23013 7.26905 7.66915 7.76964 8.22674 8.10428L8.85183 8.47866C8.8727 8.44982 8.89486 8.42016 8.91743 8.39003C9.12504 8.10932 9.35393 7.84498 9.60204 7.59932C9.74672 7.45471 9.89393 7.3193 10.0426 7.1935C10.1008 7.14428 10.16 7.10357 10.2186 7.05728C10.3068 6.98773 10.3947 6.91437 10.4836 6.85198L10.1069 6.22396C9.77358 5.66561 9.27354 5.22582 8.67715 4.96648Z" stroke="#F3BE00" stroke-width="3" stroke-linejoin="round"/>
</g>
<path d="M21.3155 20.9355C21.9118 21.1949 22.5745 21.2607 23.2102 21.1238C23.3465 20.488 23.2804 19.8259 23.0215 19.2295C22.7625 18.633 22.3235 18.1324 21.7659 17.7977L21.1408 17.4233C21.12 17.4522 21.0978 17.4818 21.0752 17.512C20.8676 17.7927 20.6387 18.057 20.3906 18.3027C20.246 18.4473 20.0987 18.5827 19.95 18.7085C19.8919 18.7577 19.8327 18.7985 19.7741 18.8447C19.6858 18.9143 19.5979 18.9876 19.509 19.05L19.8857 19.678C20.2191 20.2364 20.7191 20.6762 21.3155 20.9355Z" fill="#302500"/>
<mask id="mask15_401_349" style="mask-type:luminance" maskUnits="userSpaceOnUse" x="15" y="13" width="13" height="13">
<path d="M26.061 15.3801H17.3829V24.0582H26.061V15.3801Z" fill="white" stroke="#302500" stroke-width="3" stroke-linejoin="round"/>
<path d="M21.3155 20.9353C21.9118 21.1946 22.5745 21.2605 23.2102 21.1236C23.3465 20.4877 23.2804 19.8257 23.0215 19.2292C22.7625 18.6327 22.3235 18.1321 21.7659 17.7975L21.1408 17.4231C21.12 17.4519 21.0978 17.4816 21.0752 17.5117C20.8676 17.7924 20.6387 18.0568 20.3906 18.3024C20.246 18.447 20.0987 18.5825 19.95 18.7083C19.8919 18.7575 19.8327 18.7983 19.7741 18.8445C19.6858 18.914 19.5979 18.9874 19.509 19.0498L19.8857 19.6778C20.2191 20.2361 20.7191 20.6759 21.3155 20.9353Z" stroke="#302500" stroke-width="3" stroke-linejoin="round"/>
</mask>
<g mask="url(#mask15_401_349)">
<path d="M21.3155 20.9353C21.9118 21.1946 22.5745 21.2605 23.2102 21.1236C23.3465 20.4877 23.2804 19.8257 23.0215 19.2292C22.7625 18.6327 22.3235 18.1321 21.7659 17.7975L21.1408 17.4231C21.12 17.4519 21.0978 17.4816 21.0752 17.5117C20.8676 17.7924 20.6387 18.0568 20.3906 18.3024C20.246 18.447 20.0987 18.5825 19.95 18.7083C19.8919 18.7575 19.8327 18.7983 19.7741 18.8445C19.6858 18.914 19.5979 18.9874 19.509 19.0498L19.8857 19.6778C20.2191 20.2361 20.7191 20.6759 21.3155 20.9353Z" stroke="#F3BE00" stroke-width="3" stroke-linejoin="round"/>
</g>
<path fill-rule="evenodd" clip-rule="evenodd" d="M13.6364 26.064C13.7251 26.131 13.816 26.1952 13.9093 26.2564C13.9093 26.2564 14.6396 26.591 14.9747 26.591C15.3097 26.591 16.026 26.2564 16.026 26.2564C16.1376 26.216 16.2508 26.1519 16.3636 26.0701V28.2956C16.3636 28.9774 15.7531 29.3183 15 29.3183C14.2469 29.3183 13.6364 28.9774 13.6364 28.2956V26.064Z" fill="#F3BE00"/>
<path fill-rule="evenodd" clip-rule="evenodd" d="M14.9999 19.7728C18.7655 19.7728 21.8181 16.7202 21.8181 12.9547C21.8181 9.18911 18.7655 6.13647 14.9999 6.13647C11.2344 6.13647 8.18176 9.18911 8.18176 12.9547C8.18176 16.7202 11.2344 19.7728 14.9999 19.7728ZM13.6363 8.86375C13.6363 9.24032 13.3311 9.54557 12.9545 9.54557C12.5779 9.54557 12.2727 9.24032 12.2727 8.86375C12.2727 8.48718 12.5779 8.18193 12.9545 8.18193C13.3311 8.18193 13.6363 8.48718 13.6363 8.86375ZM10.909 10.9092C11.2856 10.9092 11.5909 10.604 11.5909 10.2274C11.5909 9.85082 11.2856 9.54557 10.909 9.54557C10.5325 9.54557 10.2272 9.85082 10.2272 10.2274C10.2272 10.604 10.5325 10.9092 10.909 10.9092ZM10.909 13.6365C11.2856 13.6365 11.5909 13.3312 11.5909 12.9547C11.5909 12.5781 11.2856 12.2728 10.909 12.2728C10.5325 12.2728 10.2272 12.5781 10.2272 12.9547C10.2272 13.3312 10.5325 13.6365 10.909 13.6365ZM13.6363 11.591C13.6363 11.9676 13.3311 12.2728 12.9545 12.2728C12.5779 12.2728 12.2727 11.9676 12.2727 11.591C12.2727 11.2145 12.5779 10.9092 12.9545 10.9092C13.3311 10.9092 13.6363 11.2145 13.6363 11.591ZM14.9999 13.6365C15.3765 13.6365 15.6818 13.3312 15.6818 12.9547C15.6818 12.5781 15.3765 12.2728 14.9999 12.2728C14.6234 12.2728 14.3181 12.5781 14.3181 12.9547C14.3181 13.3312 14.6234 13.6365 14.9999 13.6365ZM17.7272 14.3183C17.7272 14.6949 17.422 15.0001 17.0454 15.0001C16.6688 15.0001 16.3636 14.6949 16.3636 14.3183C16.3636 13.9417 16.6688 13.6365 17.0454 13.6365C17.422 13.6365 17.7272 13.9417 17.7272 14.3183ZM14.9999 16.3637C15.3765 16.3637 15.6818 16.0585 15.6818 15.6819C15.6818 15.3054 15.3765 15.0001 14.9999 15.0001C14.6234 15.0001 14.3181 15.3054 14.3181 15.6819C14.3181 16.0585 14.6234 16.3637 14.9999 16.3637ZM17.0454 9.54557C17.422 9.54557 17.7272 9.24032 17.7272 8.86375C17.7272 8.48718 17.422 8.18193 17.0454 8.18193C16.6688 8.18193 16.3636 8.48718 16.3636 8.86375C16.3636 9.24032 16.6688 9.54557 17.0454 9.54557ZM17.7272 17.0456C17.7272 17.4221 17.422 17.7274 17.0454 17.7274C16.6688 17.7274 16.3636 17.4221 16.3636 17.0456C16.3636 16.669 16.6688 16.3637 17.0454 16.3637C17.422 16.3637 17.7272 16.669 17.7272 17.0456ZM12.9545 17.7274C13.3311 17.7274 13.6363 17.4221 13.6363 17.0456C13.6363 16.669 13.3311 16.3637 12.9545 16.3637C12.5779 16.3637 12.2727 16.669 12.2727 17.0456C12.2727 17.4221 12.5779 17.7274 12.9545 17.7274ZM13.6363 14.3183C13.6363 14.6949 13.3311 15.0001 12.9545 15.0001C12.5779 15.0001 12.2727 14.6949 12.2727 14.3183C12.2727 13.9417 12.5779 13.6365 12.9545 13.6365C13.3311 13.6365 13.6363 13.9417 13.6363 14.3183ZM10.909 16.3637C11.2856 16.3637 11.5909 16.0585 11.5909 15.6819C11.5909 15.3054 11.2856 15.0001 10.909 15.0001C10.5325 15.0001 10.2272 15.3054 10.2272 15.6819C10.2272 16.0585 10.5325 16.3637 10.909 16.3637ZM15.6818 10.2274C15.6818 10.604 15.3765 10.9092 14.9999 10.9092C14.6234 10.9092 14.3181 10.604 14.3181 10.2274C14.3181 9.85082 14.6234 9.54557 14.9999 9.54557C15.3765 9.54557 15.6818 9.85082 15.6818 10.2274ZM19.0909 10.9092C19.4674 10.9092 19.7727 10.604 19.7727 10.2274C19.7727 9.85082 19.4674 9.54557 19.0909 9.54557C18.7143 9.54557 18.409 9.85082 18.409 10.2274C18.409 10.604 18.7143 10.9092 19.0909 10.9092ZM19.7727 15.6819C19.7727 16.0585 19.4674 16.3637 19.0909 16.3637C18.7143 16.3637 18.409 16.0585 18.409 15.6819C18.409 15.3054 18.7143 15.0001 19.0909 15.0001C19.4674 15.0001 19.7727 15.3054 19.7727 15.6819ZM17.0454 12.2728C17.422 12.2728 17.7272 11.9676 17.7272 11.591C17.7272 11.2145 17.422 10.9092 17.0454 10.9092C16.6688 10.9092 16.3636 11.2145 16.3636 11.591C16.3636 11.9676 16.6688 12.2728 17.0454 12.2728ZM19.7727 12.9547C19.7727 13.3312 19.4674 13.6365 19.0909 13.6365C18.7143 13.6365 18.409 13.3312 18.409 12.9547C18.409 12.5781 18.7143 12.2728 19.0909 12.2728C19.4674 12.2728 19.7727 12.5781 19.7727 12.9547Z" fill="#F3BE00"/>
</g>
<defs>
<clipPath id="clip0_401_349">
<rect width="30" height="29.3182" fill="white"/>
</clipPath>
</defs>
</svg>
