<svg width="44" height="43" viewBox="0 0 44 43" fill="none" xmlns="http://www.w3.org/2000/svg">
<g clip-path="url(#clip0_401_349)">
<path d="M33.0655 27.7541C37.2234 27.1118 41.7116 29.524 41.9007 29.6272C42.0582 29.7129 42.19 29.8405 42.282 29.9962C42.3741 30.1519 42.423 30.3299 42.4234 30.5112C42.4238 30.6925 42.3757 30.8702 42.2843 31.0253C42.1929 31.1804 42.0617 31.3071 41.9046 31.3918C39.7562 32.5869 37.6765 33.9047 35.6754 35.3391C34.7246 36.0256 33.6273 36.474 32.472 36.6482C30.7477 36.8725 28.9934 36.6393 27.379 35.9714C27.379 35.9714 25.8678 35.5273 25.8651 34.5277C25.8637 34.0279 26.8498 32.5455 26.8498 32.5455C26.8498 32.5455 28.2901 30.2014 29.3728 29.3668C30.4555 28.5322 31.7228 27.9788 33.0655 27.7541Z" fill="#F3BE00"/>
<path d="M12.524 31.0147C13.896 31.2124 16.3225 32.5532 16.3225 32.5532L17.5205 35.8061C16.4066 37.1821 14.956 38.247 13.3094 38.8975C12.1944 39.3126 10.9974 39.4595 9.81512 39.3266C7.33194 39.0551 4.83535 38.9248 2.3374 38.9362C2.15614 38.9393 1.97745 38.8931 1.82045 38.8024C1.66345 38.7118 1.53404 38.5802 1.44607 38.4216C1.3581 38.2631 1.31487 38.0837 1.32101 37.9025C1.32716 37.7213 1.38244 37.5452 1.48094 37.393C1.59925 37.2102 4.42527 32.8989 8.44562 31.4186C9.75228 30.9557 11.1519 30.8171 12.524 31.0147Z" fill="#F3BE00"/>
<path d="M35.0388 26.2671C35.9924 26.2838 36.9273 26.0011 37.7119 25.4588C37.5396 24.5207 37.0786 23.6607 36.3929 22.9978C35.7072 22.3349 34.8313 21.903 33.888 21.7625L32.8308 21.606C32.8187 21.6568 32.8054 21.7094 32.7917 21.763C32.6679 22.2598 32.5061 22.7465 32.3078 23.2186C32.193 23.4957 32.0695 23.7618 31.9386 24.0158C31.8874 24.1152 31.8301 24.2036 31.7766 24.2992C31.6961 24.4429 31.6182 24.5916 31.5327 24.726L32.3956 25.3656C33.1607 25.9351 34.0851 26.2504 35.0388 26.2671Z" fill="#302500"/>
<mask id="mask0_401_349" style="mask-type:luminance" maskUnits="userSpaceOnUse" x="28" y="18" width="14" height="13">
<path d="M39.5327 19.606H29.5327V28.606H39.5327V19.606Z" fill="white" stroke="#302500" stroke-width="3" stroke-linejoin="round"/>
<path d="M35.0388 26.2671C35.9924 26.2838 36.9273 26.0011 37.7119 25.4588C37.5396 24.5207 37.0786 23.6607 36.3929 22.9978C35.7072 22.3349 34.8313 21.903 33.888 21.7625L32.8308 21.606C32.8187 21.6568 32.8054 21.7094 32.7917 21.763C32.6679 22.2598 32.5061 22.7465 32.3078 23.2186C32.193 23.4957 32.0695 23.7618 31.9386 24.0158C31.8874 24.1152 31.8301 24.2036 31.7766 24.2992C31.6961 24.4429 31.6182 24.5916 31.5327 24.726L32.3956 25.3656C33.1607 25.9351 34.0851 26.2504 35.0388 26.2671Z" stroke="#302500" stroke-width="3" stroke-linejoin="round"/>
</mask>
<g mask="url(#mask0_401_349)">
<path d="M35.0388 26.2671C35.9924 26.2838 36.9273 26.0011 37.7119 25.4588C37.5396 24.5207 37.0786 23.6607 36.3929 22.9978C35.7072 22.3349 34.8313 21.903 33.888 21.7625L32.8308 21.606C32.8187 21.6568 32.8054 21.7094 32.7917 21.763C32.6679 22.2598 32.5061 22.7465 32.3078 23.2186C32.193 23.4957 32.0695 23.7618 31.9386 24.0158C31.8874 24.1152 31.8301 24.2036 31.7766 24.2992C31.6961 24.4429 31.6182 24.5916 31.5327 24.726L32.3956 25.3656C33.1607 25.9351 34.0851 26.2504 35.0388 26.2671Z" stroke="#F3BE00" stroke-width="3" stroke-linejoin="round"/>
</g>
<path d="M8.95044 11.7221C7.9968 11.7054 7.06193 11.9881 6.27734 12.5304C6.44961 13.4684 6.91065 14.3284 7.59634 14.9913C8.28204 15.6543 9.15786 16.0862 10.1012 16.2267L11.1584 16.3832C11.1705 16.3323 11.1838 16.2797 11.1975 16.2262C11.3213 15.7293 11.4831 15.2427 11.6814 14.7706C11.7962 14.4934 11.9198 14.2273 12.0506 13.9734C12.1018 13.874 12.1591 13.7856 12.2126 13.69C12.2931 13.5462 12.371 13.3975 12.4565 13.2631L11.5936 12.6235C10.8285 12.054 9.90407 11.7388 8.95044 11.7221Z" fill="#302500"/>
<mask id="mask1_401_349" style="mask-type:luminance" maskUnits="userSpaceOnUse" x="2" y="8" width="14" height="13">
<path d="M14.2773 9.72144H4.27734V18.7214H14.2773V9.72144Z" fill="white" stroke="#302500" stroke-width="3" stroke-linejoin="round"/>
<path d="M8.95044 11.7221C7.9968 11.7054 7.06193 11.9881 6.27734 12.5304C6.44961 13.4684 6.91065 14.3284 7.59634 14.9913C8.28204 15.6543 9.15786 16.0862 10.1012 16.2267L11.1584 16.3832C11.1705 16.3323 11.1838 16.2797 11.1975 16.2262C11.3213 15.7293 11.4831 15.2427 11.6814 14.7706C11.7962 14.4934 11.9198 14.2273 12.0506 13.9734C12.1018 13.874 12.1591 13.7856 12.2126 13.69C12.2931 13.5462 12.371 13.3975 12.4565 13.2631L11.5936 12.6235C10.8285 12.054 9.90407 11.7388 8.95044 11.7221Z" stroke="#302500" stroke-width="3" stroke-linejoin="round"/>
</mask>
<g mask="url(#mask1_401_349)">
<path d="M8.95044 11.7221C7.9968 11.7054 7.06193 11.9881 6.27734 12.5304C6.44961 13.4684 6.91065 14.3284 7.59634 14.9913C8.28204 15.6543 9.15786 16.0862 10.1012 16.2267L11.1584 16.3832C11.1705 16.3323 11.1838 16.2797 11.1975 16.2262C11.3213 15.7293 11.4831 15.2427 11.6814 14.7706C11.7962 14.4934 11.9198 14.2273 12.0506 13.9734C12.1018 13.874 12.1591 13.7856 12.2126 13.69C12.2931 13.5462 12.371 13.3975 12.4565 13.2631L11.5936 12.6235C10.8285 12.054 9.90407 11.7388 8.95044 11.7221Z" stroke="#F3BE00" stroke-width="3" stroke-linejoin="round"/>
</g>
<path d="M14.7221 32.0387C14.7054 32.9924 14.9881 33.9272 15.5304 34.7118C16.4685 34.5396 17.3285 34.0785 17.9914 33.3928C18.6543 32.7071 19.0862 31.8313 19.2267 30.888L19.3832 29.8308C19.3324 29.8187 19.2798 29.8054 19.2263 29.7916C18.7294 29.6679 18.2427 29.5061 17.7706 29.3078C17.4935 29.1929 17.2274 29.0694 16.9734 28.9386C16.8741 28.8874 16.7856 28.8301 16.69 28.7766C16.5463 28.6961 16.3976 28.6181 16.2632 28.5327L15.6236 29.3956C15.0541 30.1607 14.7388 31.0851 14.7221 32.0387Z" fill="#302500"/>
<mask id="mask2_401_349" style="mask-type:luminance" maskUnits="userSpaceOnUse" x="11" y="25" width="13" height="14">
<path d="M21.7214 26.5327H12.7214V36.5327H21.7214V26.5327Z" fill="white" stroke="#302500" stroke-width="3" stroke-linejoin="round"/>
<path d="M14.7221 32.0387C14.7054 32.9924 14.9881 33.9272 15.5304 34.7118C16.4685 34.5396 17.3285 34.0785 17.9914 33.3928C18.6543 32.7071 19.0862 31.8313 19.2267 30.888L19.3832 29.8308C19.3324 29.8187 19.2798 29.8054 19.2263 29.7916C18.7294 29.6679 18.2427 29.5061 17.7706 29.3078C17.4935 29.1929 17.2274 29.0694 16.9734 28.9386C16.8741 28.8874 16.7856 28.8301 16.69 28.7766C16.5463 28.6961 16.3976 28.6181 16.2632 28.5327L15.6236 29.3956C15.0541 30.1607 14.7388 31.0851 14.7221 32.0387Z" stroke="#302500" stroke-width="3" stroke-linejoin="round"/>
</mask>
<g mask="url(#mask2_401_349)">
<path d="M14.7221 32.0387C14.7054 32.9924 14.9881 33.9272 15.5304 34.7118C16.4685 34.5396 17.3285 34.0785 17.9914 33.3928C18.6543 32.7071 19.0862 31.8313 19.2267 30.888L19.3832 29.8308C19.3324 29.8187 19.2798 29.8054 19.2263 29.7916C18.7294 29.6679 18.2427 29.5061 17.7706 29.3078C17.4935 29.1929 17.2274 29.0694 16.9734 28.9386C16.8741 28.8874 16.7856 28.8301 16.69 28.7766C16.5463 28.6961 16.3976 28.6181 16.2632 28.5327L15.6236 29.3956C15.0541 30.1607 14.7388 31.0851 14.7221 32.0387Z" stroke="#F3BE00" stroke-width="3" stroke-linejoin="round"/>
</g>
<path d="M29.267 5.95044C29.2837 4.9968 29.0011 4.06193 28.4587 3.27734C27.5207 3.44961 26.6607 3.91064 25.9978 4.59634C25.3349 5.28204 24.9029 6.15786 24.7624 7.10121L24.606 8.1584C24.6568 8.17048 24.7094 8.18382 24.7629 8.19755C25.2598 8.32132 25.7465 8.48309 26.2186 8.68143C26.4957 8.79623 26.7618 8.91976 27.0158 9.0506C27.1151 9.10183 27.2035 9.15912 27.2991 9.21258C27.4429 9.29311 27.5916 9.37105 27.726 9.4565L28.3656 8.59358C28.9351 7.82846 29.2503 6.90407 29.267 5.95044Z" fill="#302500"/>
<mask id="mask3_401_349" style="mask-type:luminance" maskUnits="userSpaceOnUse" x="21" y="-1" width="13" height="14">
<path d="M31.606 1.27734H22.606V11.2773H31.606V1.27734Z" fill="white" stroke="#302500" stroke-width="3" stroke-linejoin="round"/>
<path d="M29.267 5.95044C29.2837 4.9968 29.0011 4.06193 28.4587 3.27734C27.5207 3.44961 26.6607 3.91064 25.9978 4.59634C25.3349 5.28204 24.9029 6.15786 24.7624 7.10121L24.606 8.1584C24.6568 8.17048 24.7094 8.18382 24.7629 8.19755C25.2598 8.32132 25.7465 8.48309 26.2186 8.68143C26.4957 8.79623 26.7618 8.91976 27.0158 9.0506C27.1151 9.10183 27.2035 9.15912 27.2991 9.21258C27.4429 9.29311 27.5916 9.37105 27.726 9.4565L28.3656 8.59358C28.9351 7.82846 29.2503 6.90407 29.267 5.95044Z" stroke="#302500" stroke-width="3" stroke-linejoin="round"/>
</mask>
<g mask="url(#mask3_401_349)">
<path d="M29.267 5.95044C29.2837 4.9968 29.0011 4.06193 28.4587 3.27734C27.5207 3.44961 26.6607 3.91064 25.9978 4.59634C25.3349 5.28204 24.9029 6.15786 24.7624 7.10121L24.606 8.1584C24.6568 8.17048 24.7094 8.18382 24.7629 8.19755C25.2598 8.32132 25.7465 8.48309 26.2186 8.68143C26.4957 8.79623 26.7618 8.91976 27.0158 9.0506C27.1151 9.10183 27.2035 9.15912 27.2991 9.21258C27.4429 9.29311 27.5916 9.37105 27.726 9.4565L28.3656 8.59358C28.9351 7.82846 29.2503 6.90407 29.267 5.95044Z" stroke="#F3BE00" stroke-width="3" stroke-linejoin="round"/>
</g>
<path d="M7.62866 23.0758C6.94253 23.7383 6.48137 24.5992 6.31006 25.5375C7.09518 26.079 8.02928 26.3611 8.98289 26.345C9.93651 26.3289 10.8612 26.015 11.6276 25.4473L12.4858 24.8104C12.4584 24.7659 12.4306 24.7193 12.4025 24.6717C12.1387 24.2329 11.9089 23.7744 11.7154 23.3003C11.6006 23.0231 11.4998 22.7476 11.4127 22.4755C11.3787 22.3691 11.3567 22.266 11.3269 22.1606C11.2822 22.002 11.2321 21.8418 11.1975 21.6863L10.1351 21.8442C9.19136 21.9826 8.31479 22.4133 7.62866 23.0758Z" fill="#302500"/>
<mask id="mask4_401_349" style="mask-type:luminance" maskUnits="userSpaceOnUse" x="2" y="18" width="14" height="13">
<path d="M14.3101 19.6863H4.31006V28.6863H14.3101V19.6863Z" fill="white" stroke="#302500" stroke-width="3" stroke-linejoin="round"/>
<path d="M7.62866 23.0758C6.94253 23.7383 6.48137 24.5992 6.31006 25.5375C7.09518 26.079 8.02928 26.3611 8.98289 26.345C9.93651 26.3289 10.8612 26.015 11.6276 25.4473L12.4858 24.8104C12.4584 24.7659 12.4306 24.7193 12.4025 24.6717C12.1387 24.2329 11.9089 23.7744 11.7154 23.3003C11.6006 23.0231 11.4998 22.7476 11.4127 22.4755C11.3787 22.3691 11.3567 22.266 11.3269 22.1606C11.2822 22.002 11.2321 21.8418 11.1975 21.6863L10.1351 21.8442C9.19136 21.9826 8.31479 22.4133 7.62866 23.0758Z" stroke="#302500" stroke-width="3" stroke-linejoin="round"/>
</mask>
<g mask="url(#mask4_401_349)">
<path d="M7.62866 23.0758C6.94253 23.7383 6.48137 24.5992 6.31006 25.5375C7.09518 26.079 8.02928 26.3611 8.98289 26.345C9.93651 26.3289 10.8612 26.015 11.6276 25.4473L12.4858 24.8104C12.4584 24.7659 12.4306 24.7193 12.4025 24.6717C12.1387 24.2329 11.9089 23.7744 11.7154 23.3003C11.6006 23.0231 11.4998 22.7476 11.4127 22.4755C11.3787 22.3691 11.3567 22.266 11.3269 22.1606C11.2822 22.002 11.2321 21.8418 11.1975 21.6863L10.1351 21.8442C9.19136 21.9826 8.31479 22.4133 7.62866 23.0758Z" stroke="#F3BE00" stroke-width="3" stroke-linejoin="round"/>
</g>
<path d="M36.3606 14.9134C37.0467 14.2509 37.5079 13.39 37.6792 12.4517C36.894 11.9102 35.9599 11.6281 35.0063 11.6442C34.0527 11.6603 33.128 11.9742 32.3616 12.5419L31.5034 13.1788C31.5308 13.2233 31.5586 13.2699 31.5867 13.3175C31.8506 13.7563 32.0803 14.2148 32.2739 14.6889C32.3887 14.9661 32.4895 15.2416 32.5765 15.5137C32.6106 15.6201 32.6326 15.7232 32.6624 15.8286C32.7071 15.9872 32.7571 16.1474 32.7917 16.3029L33.8542 16.145C34.7979 16.0066 35.6744 15.5759 36.3606 14.9134Z" fill="#302500"/>
<mask id="mask5_401_349" style="mask-type:luminance" maskUnits="userSpaceOnUse" x="28" y="8" width="14" height="13">
<path d="M39.5034 9.64355H29.5034V18.6436H39.5034V9.64355Z" fill="white" stroke="#302500" stroke-width="3" stroke-linejoin="round"/>
<path d="M36.3606 14.9134C37.0467 14.2509 37.5079 13.39 37.6792 12.4517C36.894 11.9102 35.9599 11.6281 35.0063 11.6442C34.0527 11.6603 33.128 11.9742 32.3616 12.5419L31.5034 13.1788C31.5308 13.2233 31.5586 13.2699 31.5867 13.3175C31.8506 13.7563 32.0803 14.2148 32.2739 14.6889C32.3887 14.9661 32.4895 15.2416 32.5765 15.5137C32.6106 15.6201 32.6326 15.7232 32.6624 15.8286C32.7071 15.9872 32.7571 16.1474 32.7917 16.3029L33.8542 16.145C34.7979 16.0066 35.6744 15.5759 36.3606 14.9134Z" stroke="#302500" stroke-width="3" stroke-linejoin="round"/>
</mask>
<g mask="url(#mask5_401_349)">
<path d="M36.3606 14.9134C37.0467 14.2509 37.5079 13.39 37.6792 12.4517C36.894 11.9102 35.9599 11.6281 35.0063 11.6442C34.0527 11.6603 33.128 11.9742 32.3616 12.5419L31.5034 13.1788C31.5308 13.2233 31.5586 13.2699 31.5867 13.3175C31.8506 13.7563 32.0803 14.2148 32.2739 14.6889C32.3887 14.9661 32.4895 15.2416 32.5765 15.5137C32.6106 15.6201 32.6326 15.7232 32.6624 15.8286C32.7071 15.9872 32.7571 16.1474 32.7917 16.3029L33.8542 16.145C34.7979 16.0066 35.6744 15.5759 36.3606 14.9134Z" stroke="#F3BE00" stroke-width="3" stroke-linejoin="round"/>
</g>
<path d="M17.9134 4.62866C17.2509 3.94253 16.39 3.48137 15.4517 3.31006C14.9102 4.09518 14.6281 5.02928 14.6442 5.98289C14.6603 6.93651 14.9742 7.86122 15.5419 8.62761L16.1788 9.48581C16.2233 9.45839 16.2699 9.43064 16.3175 9.4025C16.7563 9.13867 17.2148 8.90894 17.6889 8.71536C17.9661 8.60056 18.2416 8.49976 18.5137 8.4127C18.6201 8.37867 18.7232 8.35667 18.8286 8.32686C18.9872 8.28217 19.1474 8.23214 19.3029 8.1975L19.145 7.13505C19.0066 6.19136 18.5759 5.31479 17.9134 4.62866Z" fill="#302500"/>
<mask id="mask6_401_349" style="mask-type:luminance" maskUnits="userSpaceOnUse" x="11" y="-1" width="13" height="14">
<path d="M21.6436 1.31006H12.6436V11.3101H21.6436V1.31006Z" fill="white" stroke="#302500" stroke-width="3" stroke-linejoin="round"/>
<path d="M17.9134 4.62866C17.2509 3.94253 16.39 3.48137 15.4517 3.31006C14.9102 4.09518 14.6281 5.02928 14.6442 5.98289C14.6603 6.93651 14.9742 7.86122 15.5419 8.62761L16.1788 9.48581C16.2233 9.45839 16.2699 9.43064 16.3175 9.4025C16.7563 9.13867 17.2148 8.90894 17.6889 8.71536C17.9661 8.60056 18.2416 8.49976 18.5137 8.4127C18.6201 8.37867 18.7232 8.35667 18.8286 8.32686C18.9872 8.28217 19.1474 8.23214 19.3029 8.1975L19.145 7.13505C19.0066 6.19136 18.5759 5.31479 17.9134 4.62866Z" stroke="#302500" stroke-width="3" stroke-linejoin="round"/>
</mask>
<g mask="url(#mask6_401_349)">
<path d="M17.9134 4.62866C17.2509 3.94253 16.39 3.48137 15.4517 3.31006C14.9102 4.09518 14.6281 5.02928 14.6442 5.98289C14.6603 6.93651 14.9742 7.86122 15.5419 8.62761L16.1788 9.48581C16.2233 9.45839 16.2699 9.43064 16.3175 9.4025C16.7563 9.13867 17.2148 8.90894 17.6889 8.71536C17.9661 8.60056 18.2416 8.49976 18.5137 8.4127C18.6201 8.37867 18.7232 8.35667 18.8286 8.32686C18.9872 8.28217 19.1474 8.23214 19.3029 8.1975L19.145 7.13505C19.0066 6.19136 18.5759 5.31479 17.9134 4.62866Z" stroke="#F3BE00" stroke-width="3" stroke-linejoin="round"/>
</g>
<path d="M26.0758 33.3606C26.7383 34.0467 27.5992 34.5078 28.5375 34.6792C29.079 33.894 29.3611 32.9599 29.345 32.0063C29.3289 31.0527 29.015 30.128 28.4473 29.3616L27.8104 28.5034C27.7659 28.5308 27.7193 28.5586 27.6717 28.5867C27.2328 28.8506 26.7743 29.0803 26.3003 29.2739C26.0231 29.3887 25.7476 29.4895 25.4755 29.5765C25.369 29.6106 25.266 29.6325 25.1606 29.6624C25.002 29.707 24.8418 29.7571 24.6863 29.7917L24.8442 30.8542C24.9825 31.7979 25.4132 32.6744 26.0758 33.3606Z" fill="#302500"/>
<mask id="mask7_401_349" style="mask-type:luminance" maskUnits="userSpaceOnUse" x="21" y="25" width="13" height="14">
<path d="M31.6863 26.5034H22.6863V36.5034H31.6863V26.5034Z" fill="white" stroke="#302500" stroke-width="3" stroke-linejoin="round"/>
<path d="M26.0758 33.3606C26.7383 34.0467 27.5992 34.5078 28.5375 34.6792C29.079 33.894 29.3611 32.9599 29.345 32.0063C29.3289 31.0527 29.015 30.128 28.4473 29.3616L27.8104 28.5034C27.7659 28.5308 27.7193 28.5586 27.6717 28.5867C27.2328 28.8506 26.7743 29.0803 26.3003 29.2739C26.0231 29.3887 25.7476 29.4895 25.4755 29.5765C25.369 29.6106 25.266 29.6325 25.1606 29.6624C25.002 29.707 24.8418 29.7571 24.6863 29.7917L24.8442 30.8542C24.9825 31.7979 25.4132 32.6744 26.0758 33.3606Z" stroke="#302500" stroke-width="3" stroke-linejoin="round"/>
</mask>
<g mask="url(#mask7_401_349)">
<path d="M26.0758 33.3606C26.7383 34.0467 27.5992 34.5078 28.5375 34.6792C29.079 33.894 29.3611 32.9599 29.345 32.0063C29.3289 31.0527 29.015 30.128 28.4473 29.3616L27.8104 28.5034C27.7659 28.5308 27.7193 28.5586 27.6717 28.5867C27.2328 28.8506 26.7743 29.0803 26.3003 29.2739C26.0231 29.3887 25.7476 29.4895 25.4755 29.5765C25.369 29.6106 25.266 29.6325 25.1606 29.6624C25.002 29.707 24.8418 29.7571 24.6863 29.7917L24.8442 30.8542C24.9825 31.7979 25.4132 32.6744 26.0758 33.3606Z" stroke="#F3BE00" stroke-width="3" stroke-linejoin="round"/>
</g>
<path d="M36.8289 20.7217C37.7163 20.3722 38.4719 19.7533 38.9892 18.952C38.4711 18.1513 37.716 17.5332 36.8288 17.1831C35.9416 16.8331 34.9672 16.7692 34.0419 17.0004L33.0053 17.2604C33.0136 17.312 33.0214 17.3657 33.0292 17.4204C33.105 17.9268 33.1418 18.4383 33.1392 18.9504C33.1392 19.2504 33.1269 19.5435 33.1032 19.8282C33.0939 19.9396 33.0748 20.0432 33.062 20.152C33.0426 20.3156 33.0275 20.4828 33 20.6397L34.042 20.9004C34.9668 21.1337 35.9415 21.0712 36.8289 20.7217Z" fill="#302500"/>
<mask id="mask8_401_349" style="mask-type:luminance" maskUnits="userSpaceOnUse" x="29" y="13" width="14" height="12">
<path d="M41 14.864H31V22.864H41V14.864Z" fill="white" stroke="#302500" stroke-width="3" stroke-linejoin="round"/>
<path d="M36.8289 20.7217C37.7163 20.3722 38.4719 19.7533 38.9892 18.952C38.4711 18.1513 37.716 17.5332 36.8288 17.1831C35.9416 16.8331 34.9672 16.7692 34.0419 17.0004L33.0053 17.2604C33.0136 17.312 33.0214 17.3657 33.0292 17.4204C33.105 17.9268 33.1418 18.4383 33.1392 18.9504C33.1392 19.2504 33.1269 19.5435 33.1032 19.8282C33.0939 19.9396 33.0748 20.0432 33.062 20.152C33.0426 20.3156 33.0275 20.4828 33 20.6397L34.042 20.9004C34.9668 21.1337 35.9415 21.0712 36.8289 20.7217Z" stroke="#302500" stroke-width="3" stroke-linejoin="round"/>
</mask>
<g mask="url(#mask8_401_349)">
<path d="M36.8289 20.7217C37.7163 20.3722 38.4719 19.7533 38.9892 18.952C38.4711 18.1513 37.716 17.5332 36.8288 17.1831C35.9416 16.8331 34.9672 16.7692 34.0419 17.0004L33.0053 17.2604C33.0136 17.312 33.0214 17.3657 33.0292 17.4204C33.105 17.9268 33.1418 18.4383 33.1392 18.9504C33.1392 19.2504 33.1269 19.5435 33.1032 19.8282C33.0939 19.9396 33.0748 20.0432 33.062 20.152C33.0426 20.3156 33.0275 20.4828 33 20.6397L34.042 20.9004C34.9668 21.1337 35.9415 21.0712 36.8289 20.7217Z" stroke="#F3BE00" stroke-width="3" stroke-linejoin="round"/>
</g>
<path d="M7.16029 17.2674C6.27286 17.6169 5.51733 18.2358 5 19.0371C5.51814 19.8378 6.27318 20.4559 7.16037 20.806C8.04756 21.156 9.022 21.2199 9.9473 20.9887L10.9839 20.7287C10.9756 20.6771 10.9678 20.6234 10.96 20.5687C10.8842 20.0623 10.8474 19.5508 10.85 19.0387C10.85 18.7387 10.8623 18.4456 10.886 18.1609C10.8953 18.0495 10.9144 17.9459 10.9272 17.8371C10.9466 17.6735 10.9617 17.5063 10.9892 17.3494L9.9472 17.0887C9.0224 16.8554 8.04772 16.9179 7.16029 17.2674Z" fill="#302500"/>
<mask id="mask9_401_349" style="mask-type:luminance" maskUnits="userSpaceOnUse" x="1" y="13" width="14" height="12">
<path d="M13 14.9502H3V22.9502H13V14.9502Z" fill="white" stroke="#302500" stroke-width="3" stroke-linejoin="round"/>
<path d="M7.16029 17.2674C6.27286 17.6169 5.51733 18.2358 5 19.0371C5.51814 19.8378 6.27318 20.4559 7.16037 20.806C8.04756 21.156 9.022 21.2199 9.9473 20.9887L10.9839 20.7287C10.9756 20.6771 10.9678 20.6234 10.96 20.5687C10.8842 20.0623 10.8474 19.5508 10.85 19.0387C10.85 18.7387 10.8623 18.4456 10.886 18.1609C10.8953 18.0495 10.9144 17.9459 10.9272 17.8371C10.9466 17.6735 10.9617 17.5063 10.9892 17.3494L9.9472 17.0887C9.0224 16.8554 8.04772 16.9179 7.16029 17.2674Z" stroke="#302500" stroke-width="3" stroke-linejoin="round"/>
</mask>
<g mask="url(#mask9_401_349)">
<path d="M7.16029 17.2674C6.27286 17.6169 5.51733 18.2358 5 19.0371C5.51814 19.8378 6.27318 20.4559 7.16037 20.806C8.04756 21.156 9.022 21.2199 9.9473 20.9887L10.9839 20.7287C10.9756 20.6771 10.9678 20.6234 10.96 20.5687C10.8842 20.0623 10.8474 19.5508 10.85 19.0387C10.85 18.7387 10.8623 18.4456 10.886 18.1609C10.8953 18.0495 10.9144 17.9459 10.9272 17.8371C10.9466 17.6735 10.9617 17.5063 10.9892 17.3494L9.9472 17.0887C9.0224 16.8554 8.04772 16.9179 7.16029 17.2674Z" stroke="#F3BE00" stroke-width="3" stroke-linejoin="round"/>
</g>
<path d="M20.2674 33.8289C20.6169 34.7163 21.2359 35.4719 22.0371 35.9892C22.8379 35.4711 23.456 34.716 23.806 33.8288C24.1561 32.9416 24.2199 31.9672 23.9887 31.0419L23.7287 30.0053C23.6771 30.0136 23.6234 30.0214 23.5687 30.0292C23.0623 30.105 22.5508 30.1418 22.0387 30.1392C21.7387 30.1392 21.4456 30.1269 21.1609 30.1032C21.0495 30.0939 20.9459 30.0748 20.8371 30.062C20.6735 30.0426 20.5063 30.0275 20.3494 30L20.0887 31.042C19.8554 31.9668 19.9179 32.9415 20.2674 33.8289Z" fill="#302500"/>
<mask id="mask10_401_349" style="mask-type:luminance" maskUnits="userSpaceOnUse" x="16" y="26" width="12" height="14">
<path d="M26.1252 28H18.1252V38H26.1252V28Z" fill="white" stroke="#302500" stroke-width="3" stroke-linejoin="round"/>
<path d="M20.2676 33.8289C20.6171 34.7163 21.2361 35.4719 22.0373 35.9892C22.8381 35.4711 23.4562 34.716 23.8062 33.8288C24.1563 32.9416 24.2201 31.9672 23.9889 31.0419L23.7289 30.0053C23.6773 30.0136 23.6236 30.0214 23.5689 30.0292C23.0625 30.105 22.551 30.1418 22.0389 30.1392C21.7389 30.1392 21.4458 30.1269 21.1611 30.1032C21.0497 30.0939 20.9461 30.0748 20.8373 30.062C20.6737 30.0426 20.5065 30.0275 20.3496 30L20.0889 31.042C19.8556 31.9668 19.9181 32.9415 20.2676 33.8289Z" stroke="#302500" stroke-width="3" stroke-linejoin="round"/>
</mask>
<g mask="url(#mask10_401_349)">
<path d="M20.2676 33.8289C20.6171 34.7163 21.2361 35.4719 22.0373 35.9892C22.8381 35.4711 23.4562 34.716 23.8062 33.8288C24.1563 32.9416 24.2201 31.9672 23.9889 31.0419L23.7289 30.0053C23.6773 30.0136 23.6236 30.0214 23.5689 30.0292C23.0625 30.105 22.551 30.1418 22.0389 30.1392C21.7389 30.1392 21.4458 30.1269 21.1611 30.1032C21.0497 30.0939 20.9461 30.0748 20.8373 30.062C20.6737 30.0426 20.5065 30.0275 20.3496 30L20.0889 31.042C19.8556 31.9668 19.9181 32.9415 20.2676 33.8289Z" stroke="#F3BE00" stroke-width="3" stroke-linejoin="round"/>
</g>
<path d="M23.7218 4.16029C23.3723 3.27286 22.7534 2.51733 21.9521 2C21.1514 2.51814 20.5333 3.27317 20.1832 4.16037C19.8332 5.04756 19.7693 6.022 20.0005 6.9473L20.2605 7.9839C20.3121 7.9756 20.3658 7.9678 20.4205 7.96C20.9269 7.8842 21.4384 7.84743 21.9505 7.85C22.2505 7.85 22.5436 7.8623 22.8283 7.886C22.9397 7.8953 23.0433 7.9144 23.1521 7.9272C23.3157 7.9466 23.4829 7.9617 23.6398 7.9892L23.9005 6.9472C24.1338 6.0224 24.0713 5.04772 23.7218 4.16029Z" fill="#302500"/>
<mask id="mask11_401_349" style="mask-type:luminance" maskUnits="userSpaceOnUse" x="16" y="-2" width="12" height="14">
<path d="M26.0391 0H18.0391V10H26.0391V0Z" fill="white" stroke="#302500" stroke-width="3" stroke-linejoin="round"/>
<path d="M23.7217 4.16029C23.3722 3.27286 22.7533 2.51733 21.952 2C21.1513 2.51814 20.5332 3.27317 20.1831 4.16037C19.8331 5.04756 19.7692 6.022 20.0004 6.9473L20.2604 7.9839C20.312 7.9756 20.3657 7.9678 20.4204 7.96C20.9268 7.8842 21.4383 7.84743 21.9504 7.85C22.2504 7.85 22.5435 7.8623 22.8282 7.886C22.9396 7.8953 23.0432 7.9144 23.152 7.9272C23.3156 7.9466 23.4828 7.9617 23.6397 7.9892L23.9004 6.9472C24.1337 6.0224 24.0712 5.04772 23.7217 4.16029Z" stroke="#302500" stroke-width="3" stroke-linejoin="round"/>
</mask>
<g mask="url(#mask11_401_349)">
<path d="M23.7217 4.16029C23.3722 3.27286 22.7533 2.51733 21.952 2C21.1513 2.51814 20.5332 3.27317 20.1831 4.16037C19.8331 5.04756 19.7692 6.022 20.0004 6.9473L20.2604 7.9839C20.312 7.9756 20.3657 7.9678 20.4204 7.96C20.9268 7.8842 21.4383 7.84743 21.9504 7.85C22.2504 7.85 22.5435 7.8623 22.8282 7.886C22.9396 7.8953 23.0432 7.9144 23.152 7.9272C23.3156 7.9466 23.4828 7.9617 23.6397 7.9892L23.9004 6.9472C24.1337 6.0224 24.0712 5.04772 23.7217 4.16029Z" stroke="#F3BE00" stroke-width="3" stroke-linejoin="round"/>
</g>
<path d="M10.2841 28.2628C9.90364 29.1374 9.80705 30.1093 10.0079 31.0417C10.9405 31.2416 11.9114 31.1447 12.7863 30.7649C13.6611 30.3851 14.3954 29.7412 14.8862 28.9235L15.4353 28.0066C15.3929 27.976 15.3494 27.9435 15.3053 27.9104C14.8936 27.6059 14.5059 27.2702 14.1456 26.9063C13.9335 26.6942 13.7349 26.4782 13.5504 26.2601C13.4782 26.1748 13.4184 26.088 13.3505 26.002C13.2486 25.8726 13.141 25.7437 13.0495 25.6133L12.1284 26.1658C11.3094 26.6548 10.6644 27.3881 10.2841 28.2628Z" fill="#302500"/>
<mask id="mask12_401_349" style="mask-type:luminance" maskUnits="userSpaceOnUse" x="4" y="21" width="17" height="16">
<path d="M18.5476 22.6262H5.8197V35.3541H18.5476V22.6262Z" fill="white" stroke="#302500" stroke-width="3" stroke-linejoin="round"/>
<path d="M10.2839 28.2628C9.90352 29.1374 9.80693 30.1093 10.0077 31.0417C10.9403 31.2416 11.9112 31.1447 12.7861 30.7649C13.6609 30.3851 14.3952 29.7412 14.886 28.9235L15.4351 28.0066C15.3927 27.976 15.3492 27.9435 15.3051 27.9104C14.8934 27.6059 14.5057 27.2702 14.1454 26.9063C13.9333 26.6942 13.7347 26.4782 13.5502 26.2601C13.478 26.1748 13.4182 26.088 13.3503 26.002C13.2484 25.8726 13.1408 25.7437 13.0493 25.6133L12.1282 26.1658C11.3092 26.6548 10.6642 27.3881 10.2839 28.2628Z" stroke="#302500" stroke-width="3" stroke-linejoin="round"/>
</mask>
<g mask="url(#mask12_401_349)">
<path d="M10.2839 28.2628C9.90352 29.1374 9.80693 30.1093 10.0077 31.0417C10.9403 31.2416 11.9112 31.1447 12.7861 30.7649C13.6609 30.3851 14.3952 29.7412 14.886 28.9235L15.4351 28.0066C15.3927 27.976 15.3492 27.9435 15.3051 27.9104C14.8934 27.6059 14.5057 27.2702 14.1454 26.9063C13.9333 26.6942 13.7347 26.4782 13.5502 26.2601C13.478 26.1748 13.4182 26.088 13.3503 26.002C13.2484 25.8726 13.1408 25.7437 13.0493 25.6133L12.1282 26.1658C11.3092 26.6548 10.6642 27.3881 10.2839 28.2628Z" stroke="#F3BE00" stroke-width="3" stroke-linejoin="round"/>
</g>
<path d="M33.7054 9.72637C34.0858 8.85172 34.1824 7.87983 33.9816 6.94743C33.049 6.7476 32.078 6.84444 31.2032 7.22426C30.3283 7.60407 29.5941 8.24793 29.1033 9.06571L28.5542 9.98254C28.5965 10.0131 28.64 10.0456 28.6842 10.0787C29.0959 10.3832 29.4836 10.7189 29.8439 11.0828C30.056 11.295 30.2545 11.5109 30.4391 11.729C30.5113 11.8143 30.571 11.9011 30.6389 11.9871C30.7409 12.1165 30.8484 12.2454 30.9399 12.3758L31.8611 11.8233C32.68 11.3344 33.325 10.601 33.7054 9.72637Z" fill="#302500"/>
<mask id="mask13_401_349" style="mask-type:luminance" maskUnits="userSpaceOnUse" x="24" y="1" width="16" height="16">
<path d="M38.2858 2.76636H25.5579V15.4943H38.2858V2.76636Z" fill="white" stroke="#302500" stroke-width="3" stroke-linejoin="round"/>
<path d="M33.7054 9.72637C34.0858 8.85172 34.1824 7.87983 33.9816 6.94743C33.049 6.7476 32.078 6.84444 31.2032 7.22426C30.3283 7.60407 29.5941 8.24793 29.1033 9.06571L28.5542 9.98254C28.5965 10.0131 28.64 10.0456 28.6842 10.0787C29.0959 10.3832 29.4836 10.7189 29.8439 11.0828C30.056 11.295 30.2545 11.5109 30.4391 11.729C30.5113 11.8143 30.571 11.9011 30.6389 11.9871C30.7409 12.1165 30.8484 12.2454 30.9399 12.3758L31.8611 11.8233C32.68 11.3344 33.325 10.601 33.7054 9.72637Z" stroke="#302500" stroke-width="3" stroke-linejoin="round"/>
</mask>
<g mask="url(#mask13_401_349)">
<path d="M33.7054 9.72637C34.0858 8.85172 34.1824 7.87983 33.9816 6.94743C33.049 6.7476 32.078 6.84444 31.2032 7.22426C30.3283 7.60407 29.5941 8.24793 29.1033 9.06571L28.5542 9.98254C28.5965 10.0131 28.64 10.0456 28.6842 10.0787C29.0959 10.3832 29.4836 10.7189 29.8439 11.0828C30.056 11.295 30.2545 11.5109 30.4391 11.729C30.5113 11.8143 30.571 11.9011 30.6389 11.9871C30.7409 12.1165 30.8484 12.2454 30.9399 12.3758L31.8611 11.8233C32.68 11.3344 33.325 10.601 33.7054 9.72637Z" stroke="#F3BE00" stroke-width="3" stroke-linejoin="round"/>
</g>
<path d="M12.7265 7.2839C11.8519 6.90353 10.88 6.80694 9.94755 7.00773C9.74772 7.94031 9.84456 8.91126 10.2244 9.78612C10.6042 10.661 11.248 11.3952 12.0658 11.886L12.9827 12.4351C13.0133 12.3928 13.0458 12.3493 13.0789 12.3051C13.3834 11.8934 13.7191 11.5057 14.083 11.1454C14.2952 10.9333 14.5111 10.7347 14.7292 10.5502C14.8145 10.478 14.9012 10.4183 14.9872 10.3504C15.1166 10.2484 15.2456 10.1408 15.376 10.0493L14.8234 9.1282C14.3345 8.30929 13.6012 7.66427 12.7265 7.2839Z" fill="#302500"/>
<mask id="mask14_401_349" style="mask-type:luminance" maskUnits="userSpaceOnUse" x="4" y="1" width="16" height="17">
<path d="M18.3629 2.81958H5.63501V15.5475H18.3629V2.81958Z" fill="white" stroke="#302500" stroke-width="3" stroke-linejoin="round"/>
<path d="M12.7265 7.2839C11.8519 6.90353 10.88 6.80694 9.94755 7.00773C9.74772 7.94031 9.84456 8.91126 10.2244 9.78612C10.6042 10.661 11.248 11.3952 12.0658 11.886L12.9827 12.4351C13.0133 12.3928 13.0458 12.3493 13.0789 12.3051C13.3834 11.8934 13.7191 11.5057 14.083 11.1454C14.2952 10.9333 14.5111 10.7347 14.7292 10.5502C14.8145 10.478 14.9012 10.4183 14.9872 10.3504C15.1166 10.2484 15.2456 10.1408 15.376 10.0493L14.8234 9.1282C14.3345 8.30929 13.6012 7.66427 12.7265 7.2839Z" stroke="#302500" stroke-width="3" stroke-linejoin="round"/>
</mask>
<g mask="url(#mask14_401_349)">
<path d="M12.7265 7.2839C11.8519 6.90353 10.88 6.80694 9.94755 7.00773C9.74772 7.94031 9.84456 8.91126 10.2244 9.78612C10.6042 10.661 11.248 11.3952 12.0658 11.886L12.9827 12.4351C13.0133 12.3928 13.0458 12.3493 13.0789 12.3051C13.3834 11.8934 13.7191 11.5057 14.083 11.1454C14.2952 10.9333 14.5111 10.7347 14.7292 10.5502C14.8145 10.478 14.9012 10.4183 14.9872 10.3504C15.1166 10.2484 15.2456 10.1408 15.376 10.0493L14.8234 9.1282C14.3345 8.30929 13.6012 7.66427 12.7265 7.2839Z" stroke="#F3BE00" stroke-width="3" stroke-linejoin="round"/>
</g>
<path d="M31.2627 30.7054C32.1373 31.0858 33.1092 31.1824 34.0416 30.9816C34.2415 30.049 34.1446 29.078 33.7648 28.2032C33.385 27.3283 32.7411 26.5941 31.9233 26.1033L31.0065 25.5542C30.9759 25.5965 30.9434 25.64 30.9103 25.6842C30.6058 26.0959 30.2701 26.4836 29.9062 26.8439C29.6941 27.056 29.4781 27.2546 29.26 27.4391C29.1747 27.5113 29.0879 27.5711 29.0019 27.6389C28.8725 27.7409 28.7436 27.8485 28.6132 27.94L29.1657 28.8611C29.6547 29.68 30.388 30.325 31.2627 30.7054Z" fill="#302500"/>
<mask id="mask15_401_349" style="mask-type:luminance" maskUnits="userSpaceOnUse" x="23" y="21" width="17" height="16">
<path d="M38.2228 22.5576H25.4949V35.2855H38.2228V22.5576Z" fill="white" stroke="#302500" stroke-width="3" stroke-linejoin="round"/>
<path d="M31.2627 30.7052C32.1373 31.0856 33.1092 31.1822 34.0416 30.9814C34.2415 30.0488 34.1446 29.0778 33.7648 28.203C33.385 27.3281 32.7411 26.5939 31.9233 26.1031L31.0065 25.554C30.9759 25.5963 30.9434 25.6398 30.9103 25.684C30.6058 26.0957 30.2701 26.4834 29.9062 26.8437C29.6941 27.0558 29.4781 27.2544 29.26 27.4389C29.1747 27.5111 29.0879 27.5709 29.0019 27.6387C28.8725 27.7407 28.7436 27.8483 28.6132 27.9398L29.1657 28.8609C29.6547 29.6798 30.388 30.3248 31.2627 30.7052Z" stroke="#302500" stroke-width="3" stroke-linejoin="round"/>
</mask>
<g mask="url(#mask15_401_349)">
<path d="M31.2627 30.7052C32.1373 31.0856 33.1092 31.1822 34.0416 30.9814C34.2415 30.0488 34.1446 29.0778 33.7648 28.203C33.385 27.3281 32.7411 26.5939 31.9233 26.1031L31.0065 25.554C30.9759 25.5963 30.9434 25.6398 30.9103 25.684C30.6058 26.0957 30.2701 26.4834 29.9062 26.8437C29.6941 27.0558 29.4781 27.2544 29.26 27.4389C29.1747 27.5111 29.0879 27.5709 29.0019 27.6387C28.8725 27.7407 28.7436 27.8483 28.6132 27.9398L29.1657 28.8609C29.6547 29.6798 30.388 30.3248 31.2627 30.7052Z" stroke="#F3BE00" stroke-width="3" stroke-linejoin="round"/>
</g>
<path fill-rule="evenodd" clip-rule="evenodd" d="M20 38.2271C20.1301 38.3254 20.2635 38.4195 20.4003 38.5093C20.4003 38.5093 21.4715 39 21.9629 39C22.4543 39 23.5048 38.5093 23.5048 38.5093C23.6685 38.45 23.8345 38.3559 24 38.236V41.5C24 42.5 23.1046 43 22 43C20.8954 43 20 42.5 20 41.5V38.2271Z" fill="#F3BE00"/>
<path fill-rule="evenodd" clip-rule="evenodd" d="M22 29C27.5228 29 32 24.5228 32 19C32 13.4772 27.5228 9 22 9C16.4772 9 12 13.4772 12 19C12 24.5228 16.4772 29 22 29ZM20 13C20 13.5523 19.5523 14 19 14C18.4477 14 18 13.5523 18 13C18 12.4477 18.4477 12 19 12C19.5523 12 20 12.4477 20 13ZM16 16C16.5523 16 17 15.5523 17 15C17 14.4477 16.5523 14 16 14C15.4477 14 15 14.4477 15 15C15 15.5523 15.4477 16 16 16ZM16 20C16.5523 20 17 19.5523 17 19C17 18.4477 16.5523 18 16 18C15.4477 18 15 18.4477 15 19C15 19.5523 15.4477 20 16 20ZM20 17C20 17.5523 19.5523 18 19 18C18.4477 18 18 17.5523 18 17C18 16.4477 18.4477 16 19 16C19.5523 16 20 16.4477 20 17ZM22 20C22.5523 20 23 19.5523 23 19C23 18.4477 22.5523 18 22 18C21.4477 18 21 18.4477 21 19C21 19.5523 21.4477 20 22 20ZM26 21C26 21.5523 25.5523 22 25 22C24.4477 22 24 21.5523 24 21C24 20.4477 24.4477 20 25 20C25.5523 20 26 20.4477 26 21ZM22 24C22.5523 24 23 23.5523 23 23C23 22.4477 22.5523 22 22 22C21.4477 22 21 22.4477 21 23C21 23.5523 21.4477 24 22 24ZM25 14C25.5523 14 26 13.5523 26 13C26 12.4477 25.5523 12 25 12C24.4477 12 24 12.4477 24 13C24 13.5523 24.4477 14 25 14ZM26 25C26 25.5523 25.5523 26 25 26C24.4477 26 24 25.5523 24 25C24 24.4477 24.4477 24 25 24C25.5523 24 26 24.4477 26 25ZM19 26C19.5523 26 20 25.5523 20 25C20 24.4477 19.5523 24 19 24C18.4477 24 18 24.4477 18 25C18 25.5523 18.4477 26 19 26ZM20 21C20 21.5523 19.5523 22 19 22C18.4477 22 18 21.5523 18 21C18 20.4477 18.4477 20 19 20C19.5523 20 20 20.4477 20 21ZM16 24C16.5523 24 17 23.5523 17 23C17 22.4477 16.5523 22 16 22C15.4477 22 15 22.4477 15 23C15 23.5523 15.4477 24 16 24ZM23 15C23 15.5523 22.5523 16 22 16C21.4477 16 21 15.5523 21 15C21 14.4477 21.4477 14 22 14C22.5523 14 23 14.4477 23 15ZM28 16C28.5523 16 29 15.5523 29 15C29 14.4477 28.5523 14 28 14C27.4477 14 27 14.4477 27 15C27 15.5523 27.4477 16 28 16ZM29 23C29 23.5523 28.5523 24 28 24C27.4477 24 27 23.5523 27 23C27 22.4477 27.4477 22 28 22C28.5523 22 29 22.4477 29 23ZM25 18C25.5523 18 26 17.5523 26 17C26 16.4477 25.5523 16 25 16C24.4477 16 24 16.4477 24 17C24 17.5523 24.4477 18 25 18ZM29 19C29 19.5523 28.5523 20 28 20C27.4477 20 27 19.5523 27 19C27 18.4477 27.4477 18 28 18C28.5523 18 29 18.4477 29 19Z" fill="#F3BE00"/>
</g>
<defs>
<clipPath id="clip0_401_349">
<rect width="44" height="43" fill="white"/>
</clipPath>
</defs>
</svg>
